<svg width="378" height="518" viewBox="0 0 378 518" fill="none" xmlns="http://www.w3.org/2000/svg">
<path d="M135.762 335.844L136.529 335.856C197.19 337.524 318.157 287.374 406.311 224.046L406.733 223.74L406.975 224.195C443.448 293.011 454.05 355.182 434.646 386.432C426.254 399.961 412.365 406.866 394.496 406.449C353.443 435.844 304.991 445.907 257.812 434.835C232.696 428.879 209.224 417.395 189.109 401.218C167.611 384.135 149.782 362.383 136.052 336.491L135.762 335.844ZM326.62 274.283C255.554 312.117 181.047 337.669 137.277 336.776C150.852 362.275 168.539 383.709 189.73 400.548C209.753 416.634 233.107 428.058 258.097 433.991C304.989 444.985 353.296 434.93 394.083 405.596L394.21 405.528L394.365 405.54C412.273 406.005 425.543 399.443 433.905 385.984C453.07 355.051 442.547 293.436 406.423 225.073C380.929 243.207 354.27 259.645 326.62 274.283Z" fill="white" fill-opacity="0.19"/>
<path d="M300.284 438.238C330.808 439.078 391.782 413.776 436.21 381.891L436.733 382.618C392.179 414.624 330.96 439.975 300.259 439.135L300.284 438.238Z" fill="white" fill-opacity="0.19"/>
<path d="M207.747 413.236C260.032 414.635 364.508 371.376 440.6 316.725L441.123 317.452C364.905 372.197 260.19 415.569 207.721 414.132L207.747 413.236Z" fill="white" fill-opacity="0.19"/>
<path d="M213.512 322.355L214.306 321.932C248.209 385.894 293.71 426.606 336.042 430.845C358.608 433.095 378.675 424.449 393.994 405.684L394.732 406.229C379.177 425.187 358.873 434 335.989 431.715C293.298 427.49 247.556 386.582 213.512 322.355Z" fill="white" fill-opacity="0.19"/>
<path d="M310.398 282.214L311.191 281.791C358.931 371.846 389.099 417.106 394.2 415.179C394.699 414.994 395.707 413.724 393.902 406.072L394.782 405.862C396.268 412.176 396.185 415.412 394.516 416.029C386.918 418.879 346.792 350.881 310.398 282.214Z" fill="white" fill-opacity="0.19"/>
<path d="M455.757 105.999L456.524 106.011C475.512 106.54 487.2 112.19 490.325 122.345C493.24 131.878 488.558 144.926 477.354 160.142C493.834 227.484 481.055 300.445 443.851 355.341C442.86 367.592 439.819 378.108 434.604 386.455C426.191 400.022 412.248 406.928 394.286 406.438L392.918 406.419L394.008 405.635C413.153 391.777 429.706 374.655 442.91 355.054C445.545 321.523 432.728 274.891 406.096 224.663L405.91 224.314L406.249 224.134C438.298 201.122 462.332 178.926 476.339 160.098C471.798 141.552 464.997 123.634 456.087 106.747L455.757 105.999ZM477.096 159.07C487.814 144.371 492.278 131.806 489.457 122.603C486.507 112.98 475.383 107.573 457.261 106.936C465.925 123.463 472.584 140.965 477.096 159.07ZM443.971 353.551C480.251 299.215 492.727 227.421 476.665 161.066C462.596 179.831 438.75 201.818 407.203 224.522C433.317 274.007 446.102 320.017 443.971 353.551ZM418.681 400.461C424.958 397.068 430.207 392.05 433.877 385.931C438.751 378.066 441.685 368.19 442.787 356.736C429.957 375.535 414.043 392.031 395.717 405.527C403.691 405.784 411.602 404.035 418.724 400.438L418.681 400.461Z" fill="white" fill-opacity="0.19"/>
<path d="M471.904 166.209L472.698 165.786C500.778 218.761 505.793 276.204 486.464 323.363C470.041 363.351 437.392 392.864 394.479 406.39L394.2 405.534C436.857 392.089 469.336 362.816 485.635 323.03C504.874 276.136 499.86 218.951 471.904 166.209Z" fill="white" fill-opacity="0.19"/>
<path d="M489.8 123.861L490.594 123.438C516.048 171.453 520.889 226.733 504.182 279.099C486.594 334.351 447.613 379.53 394.489 406.358L394.066 405.564C447.151 378.865 485.856 333.807 503.387 278.829C519.971 226.719 515.158 171.696 489.8 123.861Z" fill="white" fill-opacity="0.19"/>
<path d="M266.413 168.492C337.903 130.432 412.838 104.816 456.524 106.011L456.787 106.021L456.911 106.254C510.952 208.223 483.002 342.838 394.605 406.323L394.467 406.396L394.317 406.395C333.48 404.726 240.055 320.464 186.047 218.558L185.861 218.209L186.2 218.029C211.816 199.766 238.612 183.217 266.413 168.492ZM456.241 106.909C395.654 105.379 275.031 155.386 187.038 218.506C240.888 319.911 333.727 403.711 394.198 405.507C482.081 342.283 509.89 208.421 456.241 106.909Z" fill="white" fill-opacity="0.19"/>
<path d="M365.659 353.864C401.752 334.648 439.569 321.729 461.626 322.335L461.607 323.242C431.083 322.402 370.108 347.678 325.681 379.589L325.158 378.862C338.09 369.642 351.62 361.291 365.659 353.864Z" fill="white" fill-opacity="0.19"/>
<path d="M319.794 268.707C381.524 235.843 446.233 213.729 483.971 214.748L483.951 215.656C431.644 214.214 327.184 257.505 251.098 312.166L250.57 311.429C272.679 295.68 295.804 281.408 319.794 268.707Z" fill="white" fill-opacity="0.19"/>
<path d="M378.665 120.876L379.459 120.454C433.525 222.342 440.344 350.565 394.732 406.228L394.037 405.661C439.43 350.25 432.59 222.473 378.665 120.876Z" fill="white" fill-opacity="0.19"/>
<path d="M281.832 160.99L282.626 160.567C336.588 262.361 386.898 372.402 394.781 405.863L393.902 406.073C386.036 372.671 335.766 262.731 281.832 160.99Z" fill="white" fill-opacity="0.19"/>
<path d="M186.611 217.702L186.853 218.157C240.725 319.808 333.818 403.881 394.355 405.519L395.723 405.538L394.637 406.306C353.618 435.765 305.044 445.853 257.915 434.848C232.798 428.893 209.327 417.409 189.212 401.232C167.791 384.217 149.979 362.523 136.279 336.738C117.446 336.168 105.811 330.543 102.741 320.413C96.1522 298.952 128.145 259.709 186.221 217.991L186.611 217.702ZM392.986 406.343C332.221 403.508 239.947 319.978 186.29 219.013C128.801 260.379 97.1424 299.077 103.549 320.119C106.545 329.88 117.939 335.308 136.507 335.814L136.77 335.824L136.894 336.057C150.604 361.809 168.325 383.511 189.708 400.506C209.731 416.592 233.085 428.016 258.074 433.949C304.574 444.894 352.436 435.076 392.986 406.343Z" fill="white" fill-opacity="0.19"/>
<path d="M325.201 378.84L325.724 379.567C296.689 400.458 280.621 419.881 283.874 430.483C285.349 435.295 291.018 437.982 300.242 438.262L300.216 439.158C290.553 438.869 284.568 435.996 282.964 430.764C279.696 419.802 295.828 399.938 325.201 378.84Z" fill="white" fill-opacity="0.19"/>
<path d="M250.565 311.499L251.094 312.237C201.251 348.036 173.752 381.559 179.329 399.741C181.91 408.135 191.717 412.803 207.736 413.241L207.71 414.138C191.278 413.689 181.176 408.798 178.451 400.005C172.789 381.434 200.455 347.51 250.565 311.499Z" fill="white" fill-opacity="0.19"/>
<path d="M120.337 276.988L121.131 276.565C174.975 378.164 297.471 436.014 394.2 405.533L394.48 406.39C297.356 436.999 174.373 378.946 120.337 276.988Z" fill="white" fill-opacity="0.19"/>
<path d="M102.424 319.305L103.218 318.882C157.039 420.438 287.547 459.324 394.136 405.567L394.559 406.361C287.519 460.344 156.477 421.295 102.424 319.305Z" fill="white" fill-opacity="0.19"/>
<path d="M198.561 36.3682L198.712 36.3697C259.539 38.0437 352.974 122.301 406.976 224.195L407.162 224.545L406.813 224.731C318.532 288.153 197.256 338.386 136.488 336.721L136.225 336.712L136.101 336.479C82.0652 234.521 110.016 99.9047 198.412 36.4203L198.561 36.3682ZM405.996 224.269C352.141 122.88 259.313 39.0741 198.842 37.2783C110.964 100.513 83.172 234.38 136.793 335.866C197.412 337.379 317.975 287.336 405.996 224.269Z" fill="white" fill-opacity="0.19"/>
<path d="M109.082 227.066C161.384 228.496 265.843 185.206 341.935 130.555L342.458 131.282C266.229 186.033 161.525 229.399 109.046 227.968L109.082 227.066Z" fill="white" fill-opacity="0.19"/>
<path d="M131.391 119.566C161.915 120.405 222.89 95.1301 267.317 63.2184L267.84 63.9453C223.286 95.9514 162.056 121.308 131.366 120.462L131.391 119.566Z" fill="white" fill-opacity="0.19"/>
<path d="M198.351 36.5345L199.046 37.1014C153.6 92.5407 160.451 220.312 214.307 321.932L213.513 322.354C159.499 220.438 152.696 92.2205 198.351 36.5345Z" fill="white" fill-opacity="0.19"/>
<path d="M198.258 36.9238L199.127 36.7191C207.003 70.1151 257.273 180.055 311.191 281.792L310.397 282.214C256.445 180.415 206.141 70.3839 198.258 36.9238Z" fill="white" fill-opacity="0.19"/>
<path d="M219.318 23.4564C255.444 4.22391 295.787 -1.31916 335.18 7.9625C360.296 13.9177 383.768 25.4021 403.883 41.5787C425.298 58.5835 443.1 80.2833 456.81 106.063C475.643 106.633 487.278 112.257 490.348 122.387C496.926 143.854 464.939 183.108 406.857 224.815L406.447 225.116L406.204 224.66C352.337 123.02 259.245 38.974 198.708 37.3086L197.34 37.29L198.425 36.5219C205.089 31.7037 212.069 27.3386 219.318 23.4564ZM406.75 223.772C464.24 182.407 495.898 143.709 489.491 122.667C486.495 112.905 475.102 107.478 456.533 106.971L456.27 106.962L456.146 106.729C442.436 80.9762 424.715 59.2743 403.327 42.2956C383.315 26.2038 359.967 14.7754 334.982 8.84196C288.494 -2.05535 240.664 7.74541 200.06 36.4801C260.809 39.2827 353.082 122.786 406.75 223.772Z" fill="white" fill-opacity="0.19"/>
<path d="M385.293 28.7076C401.708 29.1515 411.827 34.048 414.546 42.8297C420.241 61.3845 392.595 95.2703 342.453 131.325L341.93 130.598C391.773 94.7978 419.267 61.2646 413.684 43.0985C411.115 34.6992 401.291 30.0259 385.288 29.5928L385.293 28.7076Z" fill="white" fill-opacity="0.19"/>
<path d="M292.772 3.65524C302.435 3.94458 308.42 6.8171 310.029 12.0331C313.377 22.966 297.213 42.8468 267.84 63.9451L267.317 63.2182C296.352 42.327 312.392 22.8517 309.167 12.3019C307.686 7.47958 302.012 4.80837 292.799 4.5236L292.772 3.65524Z" fill="white" fill-opacity="0.19"/>
<path d="M198.561 36.3952C295.658 5.78675 418.667 63.8386 472.698 165.786L471.904 166.209C418.065 64.6211 295.57 6.77066 198.83 37.2574L198.561 36.3952Z" fill="white" fill-opacity="0.19"/>
<path d="M198.492 36.4183C305.521 -17.5594 436.564 21.4901 490.611 123.47L489.817 123.892C435.995 22.3361 305.493 -16.5394 198.893 37.2234L198.492 36.4183Z" fill="white" fill-opacity="0.19"/>
<path d="M173.912 41.6386C181.531 37.7696 190.027 35.953 198.561 36.368C205.185 31.6063 212.12 27.2928 219.319 23.4562C255.444 4.22369 295.788 -1.3194 335.18 7.96227C360.297 13.9174 383.768 25.4019 403.883 41.5785C425.381 58.6616 443.211 80.4143 456.935 106.295L457.295 106.973L456.539 106.955C395.878 105.287 274.9 155.443 186.746 218.771L186.335 219.071L186.093 218.616C149.62 149.8 139.013 87.6457 158.416 56.3953C162.17 50.1797 167.521 45.0839 173.912 41.6386ZM198.842 37.2782L198.686 37.2661C180.779 36.8013 167.509 43.3634 159.146 56.8219C139.96 87.7395 150.483 149.354 186.611 217.701C274.489 154.697 394.83 104.772 455.758 105.998C442.183 80.4996 424.501 59.0757 403.3 42.2425C383.287 26.1506 359.939 14.7222 334.954 8.78878C288.062 -2.20545 239.744 7.85453 198.958 37.1894L198.842 37.2782Z" fill="white" fill-opacity="0.19"/>
<path d="M221.158 82.5899C282.888 49.7262 347.596 27.6116 385.34 28.6421L385.315 29.5386C333.007 28.0973 228.548 71.3878 152.451 126.055L151.923 125.318C174.036 109.567 197.164 95.2937 221.158 82.5899Z" fill="white" fill-opacity="0.19"/>
<path d="M196.766 35.1913C232.86 15.9757 270.676 3.05681 292.739 3.67281L292.714 4.56933C262.19 3.72979 201.215 29.005 156.799 60.9111L156.276 60.1842C169.204 50.966 182.731 42.6167 196.766 35.1913Z" fill="white" fill-opacity="0.19"/>
<path d="M220.45 18.0039C231.689 12.0592 244.457 9.63549 257.093 11.0481C299.71 15.312 345.478 56.1933 379.511 120.426L378.664 120.876C344.773 56.9088 299.261 16.2033 256.945 11.9692C234.379 9.71916 214.34 18.4177 198.993 37.1296L198.297 36.5626C204.377 28.9679 211.907 22.6591 220.45 18.0039Z" fill="white" fill-opacity="0.19"/>
<path d="M198.339 26.8412L198.508 26.751C206.117 23.8957 246.233 91.8992 282.621 160.556L281.827 160.979C234.099 70.9182 203.926 25.6738 198.83 27.585C198.364 27.833 197.328 29.0504 199.122 36.7078L198.253 36.9124C196.832 30.8494 196.846 27.6357 198.339 26.8412Z" fill="white" fill-opacity="0.19"/>
<path d="M173.913 41.6388C180.92 37.9084 189.258 36.118 198.712 36.3698L200.08 36.3885L199 37.1671C179.856 51.0313 163.3 68.1546 150.088 87.7544C147.464 121.279 160.281 167.912 186.896 218.134L187.071 218.462L186.721 218.648C154.683 241.655 130.639 263.856 116.642 282.678C121.183 301.224 127.984 319.142 136.894 336.03L137.255 336.707L136.487 336.695C117.513 336.241 105.856 330.574 102.71 320.43C99.7844 310.902 104.466 297.854 115.676 282.649C99.1812 215.356 111.975 142.346 149.19 87.4447C150.18 75.1939 153.221 64.677 158.383 56.3589C162.151 50.1523 167.513 45.0692 173.913 41.6388ZM197.376 37.2301C180.175 37.096 167.341 43.7112 159.178 56.8053C154.304 64.6708 151.36 74.5522 150.241 85.948C163.091 67.1805 179.016 50.7157 197.345 37.247L197.376 37.2301ZM185.906 218.213C159.75 168.751 146.96 122.757 149.09 89.2229C112.811 143.559 100.339 215.337 116.402 281.692C130.439 262.944 154.285 240.957 185.874 218.23L185.906 218.213ZM135.768 335.828C127.109 319.303 120.456 301.802 115.949 283.699C105.231 298.398 100.757 310.968 103.589 320.166C106.522 329.784 117.652 335.202 135.757 335.833L135.768 335.828Z" fill="white" fill-opacity="0.19"/>
<path d="M151.902 125.328L152.43 126.066C102.598 161.86 75.0993 195.383 80.6765 213.565C83.2568 221.959 93.0643 226.627 109.083 227.065L109.047 227.967C92.6256 227.513 82.5121 222.627 79.7875 213.834C74.1252 195.263 101.749 161.361 151.902 125.328Z" fill="white" fill-opacity="0.19"/>
<path d="M156.308 60.1672L156.831 60.8941C127.786 81.7909 111.728 101.208 114.981 111.81C116.456 116.622 122.125 119.31 131.349 119.589L131.323 120.485C121.66 120.196 115.675 117.323 114.071 112.091C110.761 101.152 126.935 81.2655 156.308 60.1672Z" fill="white" fill-opacity="0.19"/>
<path d="M171.768 47.5892C180.337 43.0438 189.306 39.2967 198.561 36.3952L198.83 37.2574C156.167 50.6918 123.694 79.975 107.395 119.761C88.167 166.677 93.1573 223.793 121.13 276.566L120.336 276.989C92.2564 224.014 87.2311 166.577 106.576 119.423C119.156 88.5397 142.246 63.0968 171.768 47.5892Z" fill="white" fill-opacity="0.19"/>
<path d="M193.95 38.7823C195.453 37.9821 196.956 37.1819 198.469 36.3761L198.892 37.1699C145.947 63.876 107.16 108.883 89.641 163.908C73.0669 216.013 77.8803 271.036 103.215 318.829L102.422 319.252C76.9681 271.236 72.1323 215.967 88.7862 163.63C105.864 110.021 143.122 65.8419 193.95 38.7823Z" fill="white" fill-opacity="0.19"/>
<path d="M193.897 29.1384C198.236 26.828 202.031 25.0251 204.013 24.0785C206.854 22.7292 213.485 19.8238 218.076 18.0863C222.666 16.3489 222.603 16.3827 229.16 14.1551C230.388 13.7321 231.863 13.2867 233.306 12.8582L235.19 12.2896C243.83 9.76387 252.617 7.76745 261.5 6.31149C266.71 5.53454 272.908 4.77523 277.312 4.34612C281.026 3.99901 285.965 3.70643 289.579 3.63013C295.171 3.51932 302.346 3.62553 307.351 3.84086C312.356 4.05619 318.135 4.55214 322.108 5.09964C333.333 6.44632 344.438 8.64977 355.327 11.6907C360.503 13.1462 366.496 15.0636 370.617 16.5783C375.529 18.3785 382.597 21.218 387.911 23.6731C398.508 28.5592 408.7 34.2809 418.389 40.784C427.582 47.2513 436.399 54.2366 444.797 61.7059C449.436 65.9134 453.844 70.3689 458.002 75.0529C460.392 77.6793 463.1 81.0058 465.714 84.2059C466.894 85.6563 468.029 87.0488 469.086 88.32C473.08 93.2929 476.747 98.5193 480.065 103.966L480.569 104.785C484.338 110.653 487.79 116.72 490.909 122.958C491.495 124.236 492.152 125.624 492.833 127.055C494.693 130.983 496.797 135.446 498.28 139.099C500.768 145.008 502.932 151.048 504.761 157.193C505.071 158.387 505.47 159.75 505.849 161.125C507.029 165.305 508.351 170.035 509.184 173.844C510.46 179.712 511.807 187.269 512.519 192.663C513.231 198.058 513.851 204.683 514.086 209.489C514.263 213.062 514.618 222.098 514.257 228.973C513.712 239.56 511.947 253.161 510.607 261.591C509.863 266.063 508.429 271.689 507.139 276.614C506.644 278.236 506.287 279.785 505.972 281.311C504.611 286.421 502.973 291.452 501.062 296.382C498.573 302.883 494.856 311.287 492.278 317.034C489.824 322.329 487.061 327.474 484.003 332.443C480.105 338.798 474.488 347.181 470.036 353.287C467.409 356.9 463.184 362.029 458.73 367.009C455.288 370.879 450.621 375.686 447.137 378.967C441.488 384.385 435.552 389.495 429.354 394.276C426.094 396.854 419.409 401.649 414.305 404.896C410.678 407.194 407.811 408.952 405.764 410.109C400.064 413.334 399.498 413.649 393.253 416.77C392.438 417.204 384.943 420.962 374.967 424.806C369.108 427.07 364.086 428.684 363.872 428.743C361.978 429.344 359.301 430.185 357.267 430.779C355.771 431.209 353.917 431.707 352.184 432.127L350.117 432.684C347.895 433.282 344.759 434.001 340.811 434.826C338.628 435.268 335.585 435.829 331.525 436.523C326.265 437.435 320.046 438.206 315.686 438.489C312.457 438.7 308.851 438.867 305.254 438.975C300.459 439.273 295.649 439.357 290.825 439.226L290.519 439.213C282.994 438.995 275.485 438.39 268.023 437.401C262.765 436.559 254.831 435.281 249.048 434.04C246.885 433.575 239.387 431.916 233.689 429.991L232.617 429.637C227.386 427.899 220.872 425.743 215.947 423.841C211.677 422.174 205.66 419.523 200.972 417.25C196.285 414.977 189.697 411.38 184.649 408.457C179.257 405.269 174.02 401.889 170.641 399.368C166.545 396.319 160.349 391.724 155.975 388.076C152.67 385.312 147.974 381.033 143.414 376.627C135.987 369.375 129.112 361.579 122.846 353.303C115.84 343.835 109.499 333.893 103.868 323.549C101.163 318.468 97.8444 311.419 95.5559 306.048C93.9751 302.339 92.2597 297.56 90.7463 293.34C90.2789 292.053 89.834 290.809 89.4187 289.672C87.3853 283.666 85.6625 277.56 84.257 271.377C83.1066 266.665 81.8545 260.077 81.0227 254.61C80.1909 249.144 79.3781 241.901 78.9756 235.812C78.7369 232.353 78.6893 228.181 78.6288 224.137C78.6047 222.357 78.5877 220.641 78.5479 219.086C78.5885 212.649 78.9792 206.219 79.7183 199.825C80.044 196.405 80.6692 192.322 81.271 188.375C81.5282 186.689 81.7714 185.079 81.9749 183.599C83.1039 176.967 84.598 170.403 86.4503 163.936C87.8465 158.751 89.7167 152.797 91.2017 148.773C93.3744 142.902 96.7034 134.84 99.6723 128.22C101.707 123.672 104.792 118.009 106.443 115.038C108.392 111.555 111.133 107.108 113.354 103.548L114.029 102.468C118.487 95.4036 123.436 88.6607 128.839 82.2896C133.475 76.8871 137.059 72.9009 139.771 70.085C143.178 66.5593 147.979 61.9519 151.74 58.6049C155.665 55.1571 160.333 51.2183 163.685 48.6596L164.143 48.3206C165.81 47.0388 167.894 45.4674 169.533 44.3097C172.494 42.2169 176.355 39.6184 178.761 38.0388C178.972 37.9261 183.957 34.6068 191.463 30.4613L193.897 29.1384ZM398.815 412.749C400.614 411.791 402.213 410.94 405.284 409.156C407.32 408.004 410.177 406.252 413.782 403.966C418.855 400.735 425.524 395.962 428.763 393.395C434.925 388.629 440.832 383.543 446.462 378.159C449.963 374.936 454.577 370.103 458.013 366.249C462.435 361.287 466.661 356.211 469.251 352.604C473.693 346.504 479.289 338.159 483.182 331.821C486.232 326.903 488.985 321.808 491.429 316.562C494.007 310.816 497.709 302.433 500.193 295.948C502.09 291.052 503.715 286.055 505.062 280.98L506.24 276.278C507.531 271.379 508.977 265.828 509.688 261.346C511.023 252.933 512.763 239.333 513.336 228.825C513.687 221.982 513.333 212.973 513.156 209.427C512.939 204.679 512.326 198.118 511.619 192.708C510.912 187.297 509.572 179.805 508.296 173.963C507.464 170.181 506.142 165.452 504.973 161.292C504.584 159.923 504.212 158.586 503.886 157.361C502.062 151.248 499.91 145.238 497.439 139.356C495.974 135.762 493.88 131.32 492.026 127.403C491.34 125.962 490.682 124.573 490.097 123.295C486.993 117.09 483.561 111.054 479.818 105.212L479.314 104.393C476.01 98.9846 472.361 93.7938 468.392 88.8527C467.34 87.5922 466.199 86.189 465.02 84.7386C462.416 81.5329 459.719 78.2276 457.341 75.6223C453.21 70.9653 448.829 66.5359 444.218 62.3537C436.899 55.9802 426.391 47.1884 417.904 41.5046C408.254 35.0149 398.096 29.3151 387.529 24.4607C382.311 22.0085 375.223 19.2071 370.327 17.4118C366.239 15.9071 360.262 13.9946 355.113 12.5384C344.262 9.52052 333.199 7.32694 322.018 5.97635C318.067 5.4444 312.298 4.94281 307.336 4.73172C302.374 4.52066 295.151 4.42642 289.575 4.54219C285.972 4.61285 281.071 4.89911 277.373 5.25114C273.006 5.67394 266.814 6.4438 261.614 7.21515C252.771 8.65452 244.024 10.6302 235.421 13.1313L233.526 13.7055C232.099 14.139 230.625 14.5843 229.418 14.9961C222.913 17.1955 222.913 17.1955 218.365 18.9104C213.817 20.6253 207.217 23.487 204.393 24.8682C202.035 26.0013 197.159 28.3254 191.842 31.2508C184.368 35.3794 179.398 38.6501 179.198 38.784C176.808 40.3685 172.953 42.9509 169.992 45.0436C168.374 46.19 166.296 47.772 164.633 49.0376L164.175 49.3766C160.844 51.924 156.175 55.8093 152.278 59.2831C148.555 62.6238 143.752 67.2044 140.366 70.7188C137.67 73.5129 134.097 77.4935 129.466 82.8798C124.097 89.2209 119.174 95.9269 114.733 102.949L114.069 104.023C111.879 107.566 109.112 112.014 107.168 115.481C105.855 117.864 102.534 123.898 100.432 128.576C97.4684 135.18 94.1606 143.231 91.9873 149.075C90.5072 153.082 88.647 159.004 87.2606 164.157C85.4282 170.584 83.9581 177.108 82.8573 183.7C82.6481 185.169 82.4 186.796 82.1371 188.471C81.5247 192.424 80.963 196.472 80.605 199.883C79.9024 206.225 79.5372 212.6 79.5108 218.981C79.5506 220.536 79.5733 222.262 79.5973 224.043C79.6578 228.086 79.6992 232.221 79.9371 235.653C80.3621 241.785 81.1615 249.13 81.961 254.383C82.7605 259.635 84.0935 266.452 85.1989 271.08C86.5933 277.228 88.3028 283.301 90.3205 289.273C90.7358 290.411 91.1863 291.665 91.6481 292.941C93.1559 297.151 94.8818 301.924 96.4514 305.612C98.7286 310.961 102.062 317.963 104.729 323.05C110.355 333.371 116.692 343.288 123.695 352.729C129.911 360.975 136.735 368.744 144.111 375.971C148.654 380.345 153.345 384.64 156.633 387.372C160.986 391.005 167.165 395.595 171.244 398.612C174.59 401.096 179.8 404.477 185.181 407.644C190.159 410.59 196.692 414.109 201.423 416.412C206.154 418.716 212.09 421.316 216.337 422.967C221.225 424.875 227.723 427.027 232.938 428.76L234.009 429.113C239.652 430.986 247.103 432.63 249.255 433.101C255.016 434.327 262.94 435.61 268.181 436.447C275.616 437.425 283.095 438.027 290.591 438.251L290.865 438.254C294.93 438.236 300.052 438.186 305.219 438.016C336.568 436.093 366.996 425.042 393.979 405.706L394.063 405.661L394.586 406.388C373.569 421.688 349.378 432.064 323.806 436.747C326.352 436.424 328.981 436.03 331.363 435.631C335.422 434.937 338.455 434.382 340.622 433.935C344.56 433.116 347.669 432.398 349.88 431.805L351.947 431.248C353.647 430.791 355.517 430.298 357.02 429.906C359.049 429.328 361.704 428.498 363.593 427.887C363.794 427.78 368.808 426.225 374.646 423.972C384.574 420.14 392.031 416.388 392.851 415.965C395.671 414.423 397.28 413.566 398.815 412.749Z" fill="white" fill-opacity="0.19"/>
<path d="M135.762 335.844L136.53 335.857C197.19 337.524 318.157 287.375 406.312 224.047L406.733 223.741L406.975 224.196C443.448 293.011 454.05 355.182 434.647 386.432C426.254 399.962 412.365 406.867 394.496 406.449C353.443 435.844 304.991 445.908 257.813 434.835C232.696 428.88 209.225 417.396 189.109 401.219C167.612 384.136 149.782 362.383 136.052 336.491L135.762 335.844ZM326.62 274.284C255.554 312.117 181.047 337.669 137.277 336.777C150.852 362.275 168.54 383.71 189.73 400.549C209.753 416.634 233.107 428.059 258.097 433.991C304.989 444.985 353.296 434.931 394.083 405.596L394.21 405.528L394.366 405.541C412.273 406.005 425.543 399.443 433.906 385.985C453.07 355.052 442.547 293.437 406.424 225.074C380.929 243.207 354.271 259.646 326.62 274.284Z" fill="white" fill-opacity="0.19"/>
<path d="M300.285 438.239C330.808 439.078 391.782 413.776 436.21 381.891L436.733 382.618C392.179 414.624 330.96 439.976 300.259 439.135L300.285 438.239Z" fill="white" fill-opacity="0.19"/>
<path d="M207.747 413.236C260.032 414.635 364.508 371.376 440.6 316.725L441.123 317.452C364.905 372.198 260.19 415.57 207.722 414.133L207.747 413.236Z" fill="white" fill-opacity="0.19"/>
<path d="M213.512 322.355L214.306 321.933C248.209 385.895 293.71 426.606 336.042 430.845C358.608 433.095 378.676 424.449 393.994 405.685L394.732 406.229C379.177 425.188 358.873 434 335.989 431.715C293.298 427.491 247.556 386.582 213.512 322.355Z" fill="white" fill-opacity="0.19"/>
<path d="M310.398 282.214L311.192 281.791C358.931 371.846 389.099 417.107 394.2 415.179C394.699 414.995 395.708 413.725 393.903 406.073L394.782 405.863C396.269 412.176 396.185 415.413 394.517 416.03C386.918 418.879 346.792 350.881 310.398 282.214Z" fill="white" fill-opacity="0.19"/>
<path d="M455.757 105.999L456.524 106.012C475.512 106.54 487.201 112.19 490.325 122.346C493.24 131.879 488.558 144.927 477.355 160.142C493.834 227.484 481.055 300.445 443.851 355.341C442.861 367.592 439.82 378.109 434.604 386.455C426.191 400.022 412.249 406.929 394.287 406.439L392.918 406.42L394.009 405.636C413.153 391.777 429.706 374.655 442.91 355.054C445.545 321.523 432.728 274.891 406.097 224.664L405.911 224.315L406.249 224.134C438.298 201.122 462.332 178.927 476.34 160.099C471.799 141.553 464.997 123.635 456.087 106.747L455.757 105.999ZM477.097 159.071C487.814 144.372 492.278 131.807 489.457 122.604C486.507 112.98 475.383 107.573 457.262 106.937C465.926 123.463 472.584 140.965 477.097 159.071ZM443.971 353.552C480.251 299.216 492.727 227.421 476.665 161.067C462.596 179.832 438.75 201.819 407.203 224.523C433.317 274.007 446.102 320.018 443.971 353.552ZM418.681 400.461C424.958 397.069 430.207 392.05 433.877 385.932C438.751 378.067 441.685 368.191 442.787 356.736C429.957 375.535 414.043 392.031 395.717 405.528C403.691 405.785 411.602 404.035 418.724 400.439L418.681 400.461Z" fill="white" fill-opacity="0.19"/>
<path d="M471.904 166.21L472.698 165.787C500.778 218.761 505.793 276.204 486.464 323.363C470.042 363.351 437.392 392.864 394.479 406.391L394.2 405.534C436.857 392.089 469.336 362.817 485.635 323.031C504.874 276.136 499.861 218.951 471.904 166.21Z" fill="white" fill-opacity="0.19"/>
<path d="M489.801 123.861L490.595 123.439C516.048 171.454 520.889 226.734 504.183 279.099C486.595 334.352 447.613 379.53 394.489 406.359L394.066 405.565C447.151 378.866 485.857 333.808 503.387 278.83C519.972 226.72 515.158 171.697 489.801 123.861Z" fill="white" fill-opacity="0.19"/>
<path d="M266.414 168.492C337.903 130.433 412.838 104.817 456.524 106.012L456.787 106.021L456.911 106.254C510.953 208.223 483.002 342.839 394.605 406.323L394.468 406.397L394.317 406.395C333.48 404.727 240.055 320.464 186.047 218.559L185.861 218.209L186.2 218.029C211.816 199.766 238.613 183.218 266.414 168.492ZM456.241 106.91C395.654 105.38 275.032 155.387 187.039 218.507C240.889 319.912 333.728 403.712 394.198 405.508C482.081 342.283 509.89 208.422 456.241 106.91Z" fill="white" fill-opacity="0.19"/>
<path d="M365.659 353.865C401.753 334.649 439.569 321.73 461.627 322.336L461.607 323.243C431.083 322.403 370.109 347.678 325.681 379.59L325.158 378.863C338.09 369.643 351.62 361.292 365.659 353.865Z" fill="white" fill-opacity="0.19"/>
<path d="M319.795 268.707C381.525 235.844 446.233 213.729 483.971 214.749L483.952 215.656C431.644 214.215 327.185 257.505 251.099 312.167L250.57 311.429C272.679 295.681 295.805 281.409 319.795 268.707Z" fill="white" fill-opacity="0.19"/>
<path d="M378.665 120.877L379.459 120.454C433.525 222.342 440.345 350.565 394.733 406.228L394.037 405.662C439.43 350.25 432.59 222.473 378.665 120.877Z" fill="white" fill-opacity="0.19"/>
<path d="M281.833 160.99L282.626 160.568C336.588 262.362 386.899 372.403 394.782 405.863L393.902 406.073C386.037 372.672 335.766 262.731 281.833 160.99Z" fill="white" fill-opacity="0.19"/>
<path d="M186.611 217.702L186.853 218.157C240.726 319.809 333.818 403.881 394.355 405.52L395.723 405.538L394.638 406.306C353.618 435.765 305.044 445.853 257.915 434.849C232.799 428.894 209.327 417.409 189.212 401.233C167.791 384.217 149.979 362.523 136.279 336.738C117.446 336.168 105.811 330.543 102.742 320.413C96.1524 298.953 128.145 259.709 186.221 217.991L186.611 217.702ZM392.986 406.343C332.221 403.509 239.947 319.979 186.29 219.014C128.801 260.379 97.1427 299.078 103.549 320.119C106.546 329.881 117.939 335.308 136.507 335.815L136.77 335.824L136.894 336.057C150.605 361.81 168.326 383.512 189.708 400.507C209.731 416.592 233.085 428.017 258.075 433.949C304.574 444.894 352.437 435.077 392.986 406.343Z" fill="white" fill-opacity="0.19"/>
<path d="M325.201 378.841L325.724 379.567C296.689 400.459 280.621 419.881 283.875 430.484C285.349 435.295 291.019 437.983 300.242 438.262L300.216 439.159C290.553 438.869 284.568 435.997 282.964 430.764C279.696 419.803 295.829 399.939 325.201 378.841Z" fill="white" fill-opacity="0.19"/>
<path d="M250.566 311.5L251.094 312.237C201.251 348.037 173.752 381.56 179.33 399.742C181.91 408.136 191.717 412.804 207.736 413.242L207.711 414.138C191.279 413.69 181.176 408.798 178.451 400.006C172.789 381.434 200.455 347.51 250.566 311.5Z" fill="white" fill-opacity="0.19"/>
<path d="M120.338 276.988L121.131 276.566C174.976 378.164 297.471 436.015 394.2 405.534L394.48 406.39C297.357 436.999 174.373 378.947 120.338 276.988Z" fill="white" fill-opacity="0.19"/>
<path d="M102.424 319.305L103.218 318.882C157.04 420.439 287.547 459.325 394.137 405.567L394.559 406.361C287.52 460.345 156.477 421.295 102.424 319.305Z" fill="white" fill-opacity="0.19"/>
<path d="M198.562 36.3687L198.712 36.3702C259.539 38.0442 352.974 122.301 406.976 224.196L407.162 224.545L406.813 224.731C318.532 288.154 197.256 338.386 136.488 336.722L136.225 336.712L136.101 336.479C82.0654 234.521 110.016 99.9052 198.413 36.4208L198.562 36.3687ZM405.996 224.269C352.141 122.88 259.313 39.0746 198.842 37.2788C110.965 100.514 83.1723 234.38 136.794 335.866C197.413 337.379 317.975 287.336 405.996 224.269Z" fill="white" fill-opacity="0.19"/>
<path d="M109.082 227.066C161.384 228.497 265.843 185.206 341.935 130.555L342.458 131.282C266.229 186.033 161.525 229.4 109.046 227.968L109.082 227.066Z" fill="white" fill-opacity="0.19"/>
<path d="M131.392 119.566C161.915 120.406 222.89 95.1306 267.317 63.2189L267.84 63.9458C223.286 95.9519 162.056 121.309 131.366 120.463L131.392 119.566Z" fill="white" fill-opacity="0.19"/>
<path d="M198.351 36.535L199.047 37.1019C153.601 92.5412 160.451 220.313 214.307 321.932L213.513 322.355C159.5 220.439 152.697 92.2209 198.351 36.535Z" fill="white" fill-opacity="0.19"/>
<path d="M198.258 36.9243L199.127 36.7196C207.003 70.1156 257.273 180.056 311.191 281.792L310.397 282.215C256.446 180.415 206.141 70.3844 198.258 36.9243Z" fill="white" fill-opacity="0.19"/>
<path d="M219.318 23.4569C255.444 4.2244 295.788 -1.31868 335.18 7.96299C360.297 13.9181 383.768 25.4026 403.883 41.5792C425.298 58.5839 443.1 80.2838 456.811 106.063C475.644 106.633 487.278 112.258 490.348 122.388C496.926 143.854 464.939 183.108 406.857 224.816L406.447 225.116L406.204 224.661C352.338 123.02 259.246 38.9744 198.709 37.3091L197.34 37.2905L198.426 36.5224C205.089 31.7041 212.069 27.3391 219.318 23.4569ZM406.75 223.773C464.24 182.407 495.898 143.709 489.491 122.667C486.495 112.906 475.102 107.478 456.533 106.972L456.27 106.962L456.146 106.729C442.436 80.9767 424.715 59.2748 403.328 42.2961C383.315 26.2042 359.967 14.7759 334.982 8.84245C288.495 -2.05486 240.664 7.7459 200.061 36.4806C260.809 39.2832 353.083 122.786 406.75 223.773Z" fill="white" fill-opacity="0.19"/>
<path d="M385.293 28.7081C401.709 29.152 411.828 34.0484 414.547 42.8302C420.241 61.385 392.595 95.2708 342.453 131.325L341.931 130.598C391.773 94.7983 419.267 61.265 413.685 43.099C411.115 34.6997 401.291 30.0263 385.289 29.5933L385.293 28.7081Z" fill="white" fill-opacity="0.19"/>
<path d="M292.772 3.65573C302.436 3.94507 308.421 6.81759 310.029 12.0336C313.377 22.9665 297.213 42.8473 267.84 63.9456L267.318 63.2187C296.352 42.3275 312.393 22.8522 309.167 12.3024C307.686 7.48007 302.012 4.80886 292.8 4.52409L292.772 3.65573Z" fill="white" fill-opacity="0.19"/>
<path d="M198.561 36.3957C295.658 5.78724 418.668 63.839 472.698 165.787L471.904 166.209C418.065 64.6216 295.57 6.77115 198.83 37.2578L198.561 36.3957Z" fill="white" fill-opacity="0.19"/>
<path d="M198.492 36.4191C305.521 -17.5586 436.564 21.4908 490.611 123.47L489.817 123.893C435.995 22.3369 305.494 -16.5387 198.893 37.2242L198.492 36.4191Z" fill="white" fill-opacity="0.19"/>
<path d="M173.913 41.6391C181.531 37.7701 190.027 35.9535 198.562 36.3685C205.185 31.6068 212.12 27.2933 219.319 23.4567C255.445 4.22418 295.788 -1.31891 335.18 7.96276C360.297 13.9179 383.768 25.4023 403.884 41.5789C425.381 58.6621 443.211 80.4148 456.935 106.296L457.296 106.973L456.539 106.955C395.878 105.288 274.9 155.443 186.746 218.771L186.335 219.071L186.093 218.616C149.62 149.801 139.013 87.6462 158.417 56.3958C162.17 50.1802 167.521 45.0844 173.913 41.6391ZM198.842 37.2787L198.686 37.2666C180.779 36.8018 167.509 43.3638 159.146 56.8224C139.96 87.74 150.483 149.355 186.612 217.702C274.49 154.697 394.83 104.773 455.758 105.999C442.183 80.5001 424.501 59.0762 403.3 42.2429C383.287 26.1511 359.939 14.7227 334.955 8.78927C288.062 -2.20497 239.745 7.85502 198.958 37.1899L198.842 37.2787Z" fill="white" fill-opacity="0.19"/>
<path d="M221.158 82.5904C282.888 49.7266 347.597 27.6121 385.34 28.6426L385.315 29.5391C333.007 28.0978 228.548 71.3883 152.451 126.056L151.923 125.318C174.036 109.568 197.165 95.2941 221.158 82.5904Z" fill="white" fill-opacity="0.19"/>
<path d="M196.766 35.1918C232.86 15.9762 270.676 3.0573 292.739 3.67329L292.714 4.56982C262.19 3.73028 201.216 29.0055 156.799 60.9116L156.276 60.1847C169.204 50.9665 182.731 42.6172 196.766 35.1918Z" fill="white" fill-opacity="0.19"/>
<path d="M220.45 18.0044C231.689 12.0597 244.458 9.63598 257.094 11.0486C299.71 15.3125 345.479 56.1938 379.512 120.426L378.665 120.877C344.773 56.9092 299.261 16.2038 256.945 11.9697C234.379 9.71965 214.34 18.4181 198.993 37.1301L198.297 36.5631C204.377 28.9684 211.908 22.6596 220.45 18.0044Z" fill="white" fill-opacity="0.19"/>
<path d="M198.339 26.8419L198.509 26.7518C206.117 23.8964 246.233 91.9 282.622 160.557L281.828 160.979C234.099 70.9189 203.926 25.6745 198.83 27.5858C198.365 27.8337 197.328 29.0511 199.123 36.7085L198.253 36.9131C196.832 30.8501 196.847 27.6365 198.339 26.8419Z" fill="white" fill-opacity="0.19"/>
<path d="M173.913 41.6393C180.92 37.9089 189.259 36.1185 198.712 36.3703L200.08 36.389L199.001 37.1676C179.857 51.0318 163.3 68.1551 150.089 87.7548C147.464 121.28 160.281 167.912 186.896 218.135L187.071 218.463L186.722 218.649C154.684 241.655 130.639 263.856 116.642 282.679C121.183 301.225 127.985 319.143 136.895 336.03L137.255 336.708L136.488 336.695C117.513 336.241 105.856 330.574 102.711 320.43C99.7847 310.903 104.467 297.855 115.676 282.65C99.1815 215.356 111.976 142.347 149.19 87.4452C150.18 75.1944 153.221 64.6775 158.384 56.3594C162.151 50.1528 167.514 45.0697 173.913 41.6393ZM197.377 37.2306C180.175 37.0965 167.341 43.7117 159.178 56.8058C154.305 64.6712 151.36 74.5527 150.241 85.9485C163.091 67.181 179.016 50.7162 197.345 37.2475L197.377 37.2306ZM185.906 218.213C159.75 168.752 146.96 122.757 149.091 89.2234C112.811 143.559 100.34 215.337 116.402 281.692C130.439 262.944 154.285 240.957 185.874 218.23L185.906 218.213ZM135.768 335.828C127.11 319.303 120.456 301.803 115.949 283.699C105.232 298.398 100.757 310.969 103.589 320.166C106.522 329.785 117.653 335.203 135.758 335.834L135.768 335.828Z" fill="white" fill-opacity="0.19"/>
<path d="M151.902 125.329L152.431 126.066C102.599 161.86 75.0995 195.383 80.6767 213.565C83.2571 221.959 93.0646 226.627 109.083 227.065L109.047 227.968C92.6259 227.513 82.5124 222.627 79.7877 213.835C74.1255 195.263 101.749 161.362 151.902 125.329Z" fill="white" fill-opacity="0.19"/>
<path d="M156.308 60.1677L156.831 60.8946C127.786 81.7914 111.728 101.208 114.982 111.811C116.456 116.623 122.126 119.31 131.349 119.589L131.323 120.486C121.66 120.196 115.675 117.324 114.071 112.092C110.761 101.152 126.936 81.266 156.308 60.1677Z" fill="white" fill-opacity="0.19"/>
<path d="M171.768 47.5897C180.337 43.0443 189.306 39.2971 198.562 36.3957L198.83 37.2579C156.167 50.6923 123.694 79.9755 107.395 119.762C88.1673 166.677 93.1576 223.793 121.131 276.566L120.337 276.989C92.2566 224.015 87.2313 166.578 106.577 119.423C119.156 88.5402 142.247 63.0973 171.768 47.5897Z" fill="white" fill-opacity="0.19"/>
<path d="M193.95 38.7827C195.453 37.9826 196.956 37.1824 198.47 36.3766L198.892 37.1704C145.947 63.8765 107.16 108.883 89.6412 163.909C73.0671 216.013 77.8805 271.037 103.216 318.829L102.422 319.252C76.9683 271.237 72.1325 215.968 88.7865 163.63C105.864 110.022 143.122 65.8424 193.95 38.7827Z" fill="white" fill-opacity="0.19"/>
<path d="M194.151 29.0036L195.59 28.2372C198.243 26.8926 201.639 25.2072 204.029 24.0571C209.191 21.5809 215.139 19.2294 217.99 18.1051C222.234 16.4302 228.537 14.3378 228.958 14.209C234.088 12.5919 237.754 11.4413 242.307 10.3218C244.993 9.65226 248.059 8.90335 250.39 8.40921C253.453 7.7569 256.943 7.03999 259.604 6.62863L261.041 6.4202C264.215 5.92598 268.17 5.34208 271.155 5.00292C276.402 4.39666 280.336 4.05466 283.198 3.94394C287.571 3.7892 295.858 3.53437 302.153 3.647C307.649 3.76395 313.236 4.05024 316.869 4.54742C318.199 4.72262 319.673 4.88878 321.211 5.04792C324.849 5.47527 328.609 5.90483 331.703 6.45872C334.478 6.95102 344.136 8.71036 351.767 10.72C355.78 11.7761 362.205 13.6127 367.104 15.3382C371.467 16.8735 379.67 19.8556 385.658 22.6314C396.497 27.4656 406.922 33.1788 416.828 39.714C426.086 46.067 434.958 52.966 443.395 60.3743C448.122 64.6187 452.619 69.113 456.866 73.8378C459.271 76.4156 461.983 79.6991 464.607 82.8667C465.803 84.3221 466.954 85.6927 468.039 86.99C472.088 91.9572 475.816 97.1781 479.199 102.621C482.682 108.143 486.535 114.691 489.008 119.311C490.834 122.74 492.895 127.172 494.706 131.085C495.399 132.591 496.069 134.027 496.687 135.342C499.686 141.869 502.202 148.607 504.214 155.502L505.192 158.948C506.451 163.277 507.87 168.187 508.765 172.139C510.057 177.781 511.437 185.197 512.203 190.59C512.942 195.78 513.64 202.527 513.897 207.348C514.097 210.76 514.539 219.423 514.264 226.104C513.86 236.317 512.32 249.703 511.019 258.818C509.985 264.98 508.643 271.085 506.996 277.112C505.321 283.585 503.308 289.966 500.967 296.229C499.462 300.087 494.134 313.452 488.863 323.431C486.295 328.303 482.266 335.406 478.663 340.734L478.043 341.662C476.053 344.61 473.567 348.283 471.539 351.007C469.511 353.73 465.541 358.955 462.351 362.609L461.169 363.986C459.735 365.632 458.126 367.507 456.762 368.926C453.82 372 448.926 377.173 445.084 380.673C438.271 387.024 431.07 392.945 423.521 398.401L423.26 398.037L423.521 398.401C418.981 401.66 413.901 405.03 409.928 407.417C406.42 409.529 405.115 410.319 401.523 412.299C397.931 414.279 394.22 416.187 393.175 416.649C390.589 417.916 388.142 419.111 384.476 420.723C380.81 422.335 378.867 423.125 374.958 424.662C371.58 425.972 371.112 426.139 364.071 428.529C362.715 428.993 361.065 429.491 359.601 429.931L357.988 430.423C354.182 431.593 346.822 433.461 342.563 434.342C336.769 435.552 329.222 436.84 323.763 437.558C319.192 438.158 313.69 438.669 309.741 438.856C304.437 439.099 296.807 439.235 290.775 439.158C288.391 439.069 286.028 438.969 283.708 438.846C281.07 438.715 278.486 438.555 276.248 438.307C268.667 437.438 259.675 436.113 253.336 434.923C243.892 433.158 231.389 429.219 222.81 426.423C216.2 424.227 209.754 421.567 203.519 418.462L200.307 416.817C195.693 414.478 190.469 411.811 186.441 409.5C181.596 406.751 176.893 403.76 172.35 400.537L170.436 399.138C166.271 396.085 161.088 392.269 157.296 389.153C153.504 386.036 148.442 381.504 144.646 377.819C140.851 374.134 135.514 368.499 131.678 364.101C127.644 359.457 122.781 353.08 120.855 350.533C114.549 341.961 108.888 332.932 103.921 323.521C98.6415 313.007 93.9819 302.192 89.9657 291.134C87.7988 285.204 86.0377 279.134 84.6946 272.965C84.3756 271.396 83.9981 269.641 83.6086 267.838C82.7553 263.836 81.8661 259.691 81.3213 256.218C80.2678 250.106 79.5478 243.94 79.1647 237.75C79.1051 236.26 79.0202 234.621 78.9446 232.922C78.7359 228.958 78.5587 224.542 78.5705 221.017C78.6157 215.233 78.9563 207.784 79.4272 202.493C79.8981 197.203 80.7211 190.787 81.4997 186.202C81.9439 183.643 83.5341 174.713 85.3224 167.866C87.0547 161.346 88.6124 156.184 89.7973 152.591C91.8332 146.617 94.5132 139.607 96.5991 134.747C98.2348 130.955 100.781 125.429 103.008 121.269C105.915 115.782 110.064 108.723 112.972 103.955C117.805 96.4328 123.07 89.198 128.742 82.2872C130.753 79.9398 135.895 73.9826 140.15 69.5983C143.474 66.1713 148.287 61.585 152.121 58.1718C155.955 54.7585 160.668 50.9044 164.051 48.302C170.581 43.3446 173.098 41.6924 178.6 38.0702C179.84 37.2606 184.411 34.3113 191.356 30.4645L194.151 29.0036ZM398.794 412.761L401.154 411.504C404.735 409.53 406.03 408.745 409.517 406.645C413.49 404.258 418.538 400.905 423.063 397.667C430.578 392.233 437.746 386.334 444.525 380.006C448.314 376.508 453.241 371.371 456.211 368.35C457.554 366.943 459.158 365.083 460.581 363.443L461.763 362.066C464.937 358.434 468.855 353.264 470.909 350.513C472.963 347.762 475.397 344.144 477.393 341.207L478.013 340.279C481.684 334.716 485.073 328.971 488.167 323.068C493.412 313.117 498.72 299.79 500.226 295.959C502.557 289.731 504.556 283.384 506.214 276.944C507.858 270.947 509.198 264.87 510.228 258.737C511.53 249.648 513.055 236.311 513.46 226.124C513.73 219.487 513.306 210.856 513.095 207.449C512.822 202.623 512.124 195.903 511.38 190.702C510.635 185.502 509.235 177.947 507.954 172.326C507.06 168.4 505.647 163.501 504.399 159.193C504.069 158.011 503.717 156.84 503.405 155.743C501.417 148.89 498.92 142.196 495.935 135.715C495.317 134.401 494.647 132.964 493.954 131.458C492.148 127.556 490.093 123.135 488.284 119.737C485.827 115.122 481.975 108.601 478.503 103.1C475.141 97.6921 471.439 92.5029 467.42 87.5637C466.342 86.3039 465.185 84.8958 463.973 83.4354C461.365 80.2728 458.664 77.0105 456.275 74.4377C452.044 69.7427 447.561 65.2818 442.844 61.075C434.438 53.6908 425.598 46.816 416.37 40.4875C406.499 33.9773 396.113 28.2846 385.315 23.4663C379.365 20.7109 371.189 17.7282 366.847 16.2084C361.981 14.4929 355.589 12.693 351.575 11.61C343.987 9.60466 334.345 7.8503 331.617 7.29243C328.539 6.74347 324.806 6.31319 321.174 5.89646L316.826 5.38537C311.977 4.84289 307.103 4.545 302.223 4.49278C295.944 4.38513 287.678 4.62866 283.353 4.77145C280.535 4.91325 276.594 5.21785 271.379 5.8072C268.363 6.16327 264.441 6.78389 261.272 7.2351L259.829 7.45974C257.189 7.85984 253.715 8.58165 250.663 9.22831C248.348 9.7274 245.293 10.4707 242.617 11.1346C238.091 12.2535 234.435 13.3984 229.369 14.9817C228.89 15.128 222.635 17.2085 218.418 18.8827C215.566 20.007 209.639 22.3473 204.509 24.8066C202.119 25.9567 198.735 27.6365 196.081 28.9811C194.737 29.6967 192.906 30.6716 191.953 31.1787C185.029 35.0143 180.475 37.9417 179.251 38.7562C173.753 42.3622 171.264 44.0138 164.749 48.9493C161.365 51.5249 156.706 55.3777 152.876 58.7747C149.047 62.1717 144.256 66.7467 140.947 70.1519C136.714 74.5249 131.587 80.4603 129.576 82.8076C123.929 89.6792 118.688 96.874 113.879 104.356C110.98 109.118 106.847 116.155 103.945 121.626C101.755 125.753 99.2242 131.257 97.5829 135.038C95.4857 139.877 92.8213 146.865 90.7586 152.84C89.5307 156.428 88.0307 161.547 86.3034 168.05C84.4869 174.845 82.9116 183.725 82.4357 186.302C81.6282 190.807 80.8361 197.383 80.3773 202.517C79.9185 207.652 79.5532 215.182 79.5242 220.971C79.5011 224.475 79.6847 228.928 79.897 232.823L80.1064 237.656C80.4938 243.816 81.2111 249.95 82.2553 256.033C82.7995 259.479 83.6936 263.608 84.5413 267.599C84.9307 269.403 85.3082 271.158 85.6329 272.737C86.9633 278.851 88.705 284.868 90.8463 290.746C94.8557 301.769 99.5018 312.549 104.761 323.033C109.703 332.403 115.337 341.391 121.617 349.923C123.532 352.449 128.406 358.848 132.396 363.434C136.226 367.821 141.414 373.305 145.309 377.1C149.204 380.895 154.151 385.312 157.909 388.391C161.668 391.471 166.851 395.287 171.017 398.34L172.92 399.745C177.432 402.928 182.102 405.883 186.911 408.598C190.924 410.904 196.131 413.566 200.729 415.899L203.952 417.539C210.14 420.628 216.542 423.272 223.106 425.45C231.67 428.24 244.129 432.149 253.525 433.926L255.837 434.339C207.848 422.638 165.765 389.521 138.7 341.236C137.923 339.775 137.098 338.353 136.315 336.882L136.123 336.522C82.0873 234.564 110.038 99.9477 198.435 36.4633L198.957 37.1902C110.891 100.376 83.084 234.522 136.917 336.099L137.109 336.459C168.89 396.157 223.321 433.636 283.807 437.91L286.299 438.023C287.916 438.1 289.462 438.173 290.887 438.297C296.886 438.364 304.453 438.261 309.752 438.008C313.716 437.799 319.165 437.317 323.699 436.723C329.142 436.026 336.678 434.744 342.393 433.563C346.63 432.666 353.942 430.811 357.727 429.652L359.371 429.116C360.818 428.672 362.458 428.179 363.745 427.738C370.818 425.331 371.249 425.197 374.653 423.86C378.557 422.339 380.368 421.606 384.139 419.937C387.911 418.269 390.221 417.148 392.844 415.874C393.66 415.494 396.116 414.186 398.794 412.761Z" fill="white" fill-opacity="0.19"/>
<path d="M198.021 35.3516L198.171 35.3532C259.321 37.0457 353.314 121.739 407.583 224.212L407.781 224.582L407.431 224.768C318.655 288.536 196.726 339.048 135.615 337.376L135.352 337.367L135.228 337.134C80.9048 234.636 109.05 99.2638 197.895 35.4461L198.021 35.3516ZM406.561 224.308C352.408 122.358 259.063 38.093 198.282 36.3267C109.877 99.924 81.9474 234.502 135.9 336.559C196.861 338.026 318.089 287.778 406.561 224.308Z" fill="white" fill-opacity="0.19"/>
<path d="M130.439 119.026C161.129 119.872 222.466 94.4861 267.113 62.3756L267.636 63.1025C222.835 95.2813 161.27 120.775 130.419 119.934L130.439 119.026Z" fill="white" fill-opacity="0.19"/>
<path d="M108.044 227.102C160.636 228.541 265.674 185.01 342.187 130.053L342.71 130.78C266.06 185.837 160.777 229.444 108.019 227.998L108.044 227.102Z" fill="white" fill-opacity="0.19"/>
<path d="M197.811 35.5178L198.506 36.0848C152.816 91.8307 159.701 220.304 213.855 322.485L213.061 322.907C158.749 220.43 151.912 91.5104 197.811 35.5178Z" fill="white" fill-opacity="0.19"/>
<path d="M197.719 35.9059L198.599 35.6957C206.507 69.2786 257.055 179.818 311.277 282.126L310.483 282.548C256.233 180.188 205.645 69.5474 197.719 35.9059Z" fill="white" fill-opacity="0.19"/>
<path d="M218.9 22.3612C255.227 3.02163 295.79 -2.54315 335.386 6.73867C360.653 12.7359 384.262 24.3018 404.487 40.5914C426.006 57.6633 443.929 79.5156 457.702 105.438C476.648 106.016 488.305 111.683 491.429 121.839C497.978 143.402 465.829 182.811 407.431 224.768L407.021 225.068L406.778 224.613C352.613 122.411 259.016 37.9008 198.135 36.2281L196.767 36.2095L197.852 35.4414C204.569 30.6171 211.6 26.2473 218.9 22.3612ZM407.352 223.751C465.146 182.115 497.029 143.201 490.539 122.054C487.531 112.245 476.067 106.787 457.391 106.283L457.128 106.274L456.987 106.009C443.257 80.0907 425.389 58.2906 403.891 41.2075C383.765 25.0272 360.283 13.5396 335.155 7.58142C288.419 -3.37393 240.273 6.47248 199.486 35.3728C260.602 38.2518 353.392 122.241 407.341 223.756L407.352 223.751Z" fill="white" fill-opacity="0.19"/>
<path d="M292.758 2.45335C302.485 2.70888 308.488 5.63993 310.097 10.8827C313.468 21.858 297.215 41.8537 267.674 63.0689L267.151 62.342C296.366 41.355 312.483 21.7437 309.187 11.1635C307.706 6.31439 301.994 3.62266 292.685 3.3618L292.758 2.45335Z" fill="white" fill-opacity="0.19"/>
<path d="M385.802 27.5941C402.336 28.0296 412.482 32.9522 415.209 41.825C420.944 60.5074 393.164 94.5737 342.72 130.802L342.197 130.075C392.314 94.0751 419.959 60.3663 414.357 42.0881C411.765 33.6465 401.919 28.9308 385.788 28.5118L385.802 27.5941Z" fill="white" fill-opacity="0.19"/>
<path d="M198.022 35.3779C295.736 4.57665 419.312 62.9251 473.663 165.476L472.869 165.899C418.732 63.75 295.563 5.57888 198.302 36.2345L198.022 35.3779Z" fill="white" fill-opacity="0.19"/>
<path d="M197.952 35.4017C305.612 -18.8979 437.336 20.3863 491.687 122.937L490.894 123.36C436.779 21.2535 305.547 -17.8448 198.37 36.2118L197.952 35.4017Z" fill="white" fill-opacity="0.19"/>
<path d="M173.233 40.6417C180.896 36.7554 189.439 34.9321 198.021 35.3515C239.231 5.79126 287.985 -4.39254 335.375 6.74456C360.642 12.7418 384.251 24.3077 404.476 40.5973C426.077 57.7475 444.029 79.6527 457.816 105.677L458.176 106.354L457.409 106.342C396.469 104.66 274.774 155.102 186.146 218.764L185.725 219.07L185.482 218.615C148.812 149.429 138.153 86.9217 157.643 55.476C161.417 49.2242 166.802 44.1009 173.233 40.6417ZM198.302 36.2617L198.146 36.2496C180.216 35.7424 166.792 42.3728 158.363 55.935C139.063 87.0218 149.648 148.984 185.974 217.701C274.347 154.351 395.346 104.158 456.601 105.386C442.953 79.75 425.177 58.1997 403.865 41.262C383.739 25.0817 360.257 13.5941 335.13 7.63596C287.973 -3.42126 239.41 6.71472 198.386 36.1898L198.302 36.2617Z" fill="white" fill-opacity="0.19"/>
<path d="M196.226 34.1744C232.51 14.8573 270.56 1.84128 292.757 2.45384L292.732 3.35034C262.042 2.50432 200.705 27.8907 156.063 60.0118L155.535 59.2743C168.532 50.0216 182.125 41.6368 196.226 34.1744Z" fill="white" fill-opacity="0.19"/>
<path d="M220.754 81.8261C282.812 48.7877 347.877 26.5514 385.803 27.5932L385.778 28.4897C333.18 27.0398 228.159 70.5753 151.635 125.538L151.123 124.805C173.36 108.96 196.621 94.6018 220.754 81.8261Z" fill="white" fill-opacity="0.19"/>
<path d="M220.052 16.8707C231.353 10.8952 244.189 8.45848 256.893 9.87761C299.752 14.1622 345.768 55.2786 379.997 119.855L379.203 120.277C345.115 55.9658 299.361 15.0358 256.804 10.7811C234.113 8.5021 213.969 17.2838 198.528 36.0732L197.832 35.5063C203.931 27.8836 211.484 21.549 220.052 16.8707Z" fill="white" fill-opacity="0.19"/>
<path d="M197.798 25.7708L197.978 25.675C205.619 22.8028 245.947 91.1549 282.555 160.224L281.761 160.647C233.751 70.0574 203.428 24.6076 198.3 26.5358C197.742 26.711 196.783 28.023 198.599 35.6959L197.719 35.9062C196.281 29.8114 196.306 26.5653 197.798 25.7708Z" fill="white" fill-opacity="0.19"/>
<path d="M173.234 40.6414C180.283 36.8885 188.692 35.1285 198.172 35.3528L199.54 35.3715L198.45 36.1557C179.198 50.0894 162.552 67.3067 149.276 87.0179C146.63 120.731 159.513 167.614 186.274 218.112L186.46 218.461L186.122 218.641C153.899 241.786 129.692 264.115 115.638 283.036C120.217 301.679 127.068 319.689 136.037 336.662L136.398 337.34L135.63 337.327C116.536 336.802 104.787 331.115 101.651 320.912C98.7073 311.326 103.431 298.229 114.685 282.904C98.0791 215.222 110.971 141.835 148.382 86.6384C149.376 74.3178 152.484 63.724 157.63 55.3742C161.422 49.1579 166.81 44.0708 173.234 40.6414ZM196.81 36.2406C179.512 36.1035 166.587 42.7265 158.39 55.9341C153.479 63.8327 150.498 73.7205 149.403 85.239C162.322 66.3428 178.35 49.772 196.805 36.23L196.81 36.2406ZM185.274 218.223C158.972 168.486 146.116 122.241 148.247 88.5033C111.777 143.144 99.2246 215.332 115.425 282.022C129.528 263.17 153.5 241.062 185.268 218.212L185.274 218.223ZM134.89 336.472C126.177 319.856 119.484 302.257 114.956 284.051C104.16 298.832 99.6714 311.478 102.515 320.723C105.471 330.384 116.666 335.822 134.884 336.461L134.89 336.472Z" fill="white" fill-opacity="0.19"/>
<path d="M155.536 59.2739L156.064 60.0114C126.85 80.9983 110.716 100.605 113.97 111.207C115.462 116.051 121.174 118.743 130.483 119.004L130.463 119.911C120.736 119.655 114.733 116.724 113.124 111.481C109.716 100.512 126 80.4997 155.536 59.2739Z" fill="white" fill-opacity="0.19"/>
<path d="M151.182 124.815L151.694 125.547C101.578 161.547 73.944 195.25 79.5451 213.529C82.1374 221.97 91.9837 226.686 108.104 227.111L108.079 228.007C91.5393 227.561 81.4033 222.633 78.6717 213.776C72.9001 195.127 100.68 161.034 151.182 124.815Z" fill="white" fill-opacity="0.19"/>
<path d="M171.085 46.6352C179.699 42.064 188.716 38.2958 198.022 35.3785L198.301 36.235C155.409 49.7504 122.741 79.1781 106.34 119.155C87.0061 166.33 92.0321 223.794 120.135 276.838L119.342 277.26C91.1142 223.984 86.049 166.242 105.539 118.875C118.185 87.8185 141.401 62.2316 171.085 46.6352Z" fill="white" fill-opacity="0.19"/>
<path d="M193.389 37.7768C194.902 36.971 196.416 36.1652 197.93 35.3594L198.352 36.1532C145.079 63.034 106.099 108.266 88.4968 163.594C71.8005 215.954 76.6546 271.308 102.136 319.349L101.342 319.772C75.753 271.503 70.8934 215.934 87.6365 163.305C104.819 109.409 142.275 64.9886 193.389 37.7768Z" fill="white" fill-opacity="0.19"/>
<path d="M134.89 336.471L135.658 336.484C196.597 338.166 318.282 287.729 406.921 224.062L407.342 223.756L407.584 224.211C444.26 293.407 454.919 355.915 435.413 387.355C426.974 400.95 413.011 407.895 395.051 407.485C353.846 437.029 305.087 447.229 257.697 436.092C232.431 430.09 208.824 418.525 188.596 402.239C166.995 385.089 149.049 363.194 135.246 337.165L134.89 336.471ZM326.791 274.573C255.323 312.621 180.432 338.295 136.395 337.409C150.048 363.056 167.835 384.601 189.141 401.528C209.269 417.711 232.753 429.202 257.882 435.164C305.039 446.222 353.575 436.086 394.616 406.616L394.753 406.543L394.903 406.544C412.839 407.062 426.257 400.421 434.692 386.87C453.939 355.784 443.353 293.822 406.99 225.111C381.369 243.337 354.579 259.86 326.791 274.573Z" fill="white" fill-opacity="0.19"/>
<path d="M207.249 414.289C259.868 415.727 364.889 372.192 441.392 317.241L441.92 317.978C365.27 373.035 259.998 416.636 207.229 415.196L207.249 414.289Z" fill="white" fill-opacity="0.19"/>
<path d="M300.289 439.391C330.979 440.237 392.305 414.856 436.958 382.729L437.48 383.456C392.679 415.635 331.12 441.14 300.263 440.287L300.289 439.391Z" fill="white" fill-opacity="0.19"/>
<path d="M213.062 322.907L213.856 322.484C247.944 386.796 293.704 427.736 336.261 431.991C358.952 434.27 379.085 425.494 394.532 406.688L395.233 407.266C379.579 426.345 359.179 435.181 336.172 432.894C293.307 428.599 247.28 387.462 213.062 322.907Z" fill="white" fill-opacity="0.19"/>
<path d="M310.482 282.549L311.276 282.126C359.222 372.696 389.616 418.176 394.754 416.269C395.27 416.09 396.267 414.798 394.456 407.109L395.335 406.899C396.823 413.239 396.718 416.487 395.071 417.119C387.419 419.97 347.074 351.586 310.482 282.549Z" fill="white" fill-opacity="0.19"/>
<path d="M456.634 105.369L457.401 105.381C476.506 105.901 488.255 111.587 491.391 121.791C494.324 131.383 489.611 144.474 478.357 159.798C494.968 227.491 482.077 300.879 444.655 356.081C443.661 368.401 440.553 378.995 435.407 387.345C426.947 400.977 412.931 407.923 394.872 407.43L393.504 407.412L394.584 406.633C413.853 392.697 430.513 375.471 443.799 355.748C446.445 322.035 433.51 275.18 406.801 224.655L406.615 224.305L406.954 224.125C439.177 200.98 463.373 178.657 477.427 159.736C472.848 141.093 465.997 123.083 457.028 106.11L456.634 105.369ZM478.088 158.732C488.873 143.957 493.373 131.305 490.529 122.06C487.567 112.388 476.372 106.951 458.154 106.311C466.867 122.927 473.56 140.526 478.088 158.732ZM444.798 354.307C481.239 299.586 493.819 227.451 477.656 160.728C463.51 179.603 439.539 201.711 407.77 224.56C434.078 274.308 446.939 320.563 444.798 354.307ZM419.358 401.445C425.685 398.048 430.98 393.009 434.687 386.859C439.591 378.95 442.579 369.073 443.702 357.607C430.757 376.474 414.717 393.018 396.26 406.542C405.135 406.608 412.834 404.909 419.358 401.445Z" fill="white" fill-opacity="0.19"/>
<path d="M472.868 165.899L473.662 165.477C501.905 218.758 506.96 276.506 487.498 323.926C471.007 364.168 438.157 393.814 395.021 407.406L394.741 406.549C437.633 393.034 470.301 363.606 486.702 323.63C506.014 276.412 500.982 218.937 472.868 165.899Z" fill="white" fill-opacity="0.19"/>
<path d="M490.86 123.296L491.654 122.874C517.232 171.148 522.108 226.722 505.354 279.357C487.689 334.95 448.505 380.358 395.073 407.351L394.65 406.557C447.898 379.703 486.893 334.45 504.495 279.122C521.185 226.698 516.359 171.423 490.86 123.296Z" fill="white" fill-opacity="0.19"/>
<path d="M266.231 168.168C338.112 129.9 413.478 104.177 457.369 105.399L457.632 105.408L457.739 105.609C512.086 208.177 484.025 343.503 395.138 407.344L395.011 407.411L394.861 407.41C333.69 405.728 239.744 320.996 185.443 218.541L185.257 218.191L185.607 218.005C211.352 199.632 238.286 182.983 266.231 168.168ZM457.118 106.28C396.172 104.764 274.917 155.013 186.434 218.488C240.577 320.444 333.927 404.719 394.713 406.469C483.104 342.947 511.076 208.347 457.118 106.28Z" fill="white" fill-opacity="0.19"/>
<path d="M319.964 269.024C382.022 235.986 447.082 213.739 485.018 214.775L484.999 215.682C432.416 214.184 327.363 257.763 250.856 312.73L250.327 311.993C272.567 296.15 295.83 281.796 319.964 269.024Z" fill="white" fill-opacity="0.19"/>
<path d="M366.05 354.593C402.334 335.276 440.39 322.27 462.582 322.872L462.556 323.769C431.861 322.939 370.53 348.309 325.877 380.436L325.354 379.709C338.349 370.446 351.944 362.056 366.05 354.593Z" fill="white" fill-opacity="0.19"/>
<path d="M379.171 120.267L379.965 119.845C434.277 222.322 441.12 351.252 395.221 407.245L394.52 406.667C440.227 350.953 433.342 222.48 379.171 120.267Z" fill="white" fill-opacity="0.19"/>
<path d="M281.761 160.647L282.554 160.225C336.804 262.585 387.382 373.231 395.318 406.867L394.438 407.077C386.536 373.505 335.982 262.955 281.761 160.647Z" fill="white" fill-opacity="0.19"/>
<path d="M186 217.673L186.242 218.129C240.413 320.341 334.01 404.851 394.885 406.513L396.254 406.532L395.163 407.316C353.886 436.953 305.104 447.111 257.694 436.012C232.428 430.01 208.82 418.445 188.593 402.159C167.074 385.087 149.151 363.235 135.366 337.318C116.426 336.751 104.764 331.073 101.65 320.912C95.0307 299.318 127.195 259.861 185.598 217.914L186 217.673ZM393.551 407.4C332.475 404.595 239.657 320.553 185.707 219.038C127.913 260.674 96.03 299.587 102.52 320.734C105.528 330.544 116.992 336.001 135.668 336.505L135.92 336.521L136.044 336.753C149.827 362.644 167.654 384.466 189.151 401.549C209.279 417.733 232.763 429.224 257.893 435.186C304.585 446.137 352.741 436.258 393.551 407.4Z" fill="white" fill-opacity="0.19"/>
<path d="M250.327 311.993L250.856 312.73C200.734 348.72 173.095 382.439 178.696 400.717C181.283 409.148 191.129 413.864 207.249 414.289L207.229 415.196C190.69 414.75 180.554 409.822 177.833 400.959C172.11 382.325 199.884 348.221 250.327 311.993Z" fill="white" fill-opacity="0.19"/>
<path d="M325.354 379.709L325.877 380.436C296.673 401.418 280.545 421.035 283.841 431.615C285.332 436.458 291.034 439.156 300.353 439.411L300.328 440.307C290.601 440.052 284.588 437.126 282.989 431.878C279.571 420.915 295.823 400.919 325.354 379.709Z" fill="white" fill-opacity="0.19"/>
<path d="M119.365 277.302L120.159 276.879C174.296 379.028 297.481 437.204 394.742 406.549L395.022 407.405C297.383 438.221 173.699 379.821 119.365 277.302Z" fill="white" fill-opacity="0.19"/>
<path d="M101.333 319.804L102.127 319.382C156.247 421.499 287.479 460.597 394.656 406.541L395.079 407.334C287.474 461.659 155.701 422.387 101.333 319.804Z" fill="white" fill-opacity="0.19"/>
<path d="M193.515 27.9835C202.921 22.9795 212.681 18.669 222.716 15.0864C231.604 11.9033 238.888 9.99508 242 9.18059C250.617 6.91641 259.318 5.47618 259.399 5.47412C267.262 4.12433 275.193 3.21229 283.158 2.74227C288.748 2.34718 296.458 2.20904 302.242 2.4313C307.084 2.57033 312.648 2.84112 316.861 3.32885C324.485 4.20143 333.52 5.53142 339.892 6.73108C349.367 8.47898 361.963 12.4645 370.591 15.2748C377.239 17.4824 383.721 20.1598 389.99 23.2867L393.191 24.9107C397.832 27.2758 403.094 29.9629 407.161 32.2944C412.382 35.2883 418.795 39.5768 421.316 41.2772C426.273 44.6427 432.424 49.3831 436.469 52.7451C439.154 54.9563 442.253 57.8168 445.219 60.5304C446.603 61.804 447.917 63.0471 449.173 64.1307C453.839 68.4303 458.2 73.0492 462.225 77.9537C469.676 87.0013 476.613 96.4612 483.001 106.288C487.839 114.024 494.288 125.601 497.874 134.913C498.488 136.502 499.215 138.275 499.93 140.027C501.631 144.216 503.57 148.957 504.69 152.871C505.138 154.453 505.66 156.199 506.2 158.004C507.396 161.986 508.633 166.095 509.462 169.566C511.018 175.678 512.241 181.87 513.128 188.114C513.301 189.638 513.484 191.334 513.737 193.06C514.256 197.172 514.783 201.429 515.035 204.99C515.448 210.869 515.679 218.449 515.565 223.848C515.451 229.248 515.125 235.779 514.714 240.468C514.195 246.842 513.351 253.186 512.185 259.474C510.127 269.981 507.493 280.367 504.295 290.586C502.555 295.737 499.86 302.796 497.432 308.544C495.586 312.936 493.006 318.372 491.051 322.075C488.344 327.198 484.27 334.217 481.041 339.481C479.027 342.741 476.142 346.993 473.866 350.093C471.382 353.413 468.528 357.187 466.282 359.986C464.535 362.139 462.117 364.921 460.23 367.066L459.578 367.807C455.289 372.713 449.441 378.366 447.744 379.976C445.12 382.473 443.145 384.299 441.691 385.549C438.62 388.175 433.647 392.358 429.703 395.463C427.063 397.547 420.569 402.268 415.006 405.8C402.556 413.8 389.327 420.515 375.521 425.843C365.837 429.572 358.263 431.702 358.258 431.692C353.362 433.035 347.612 434.507 343.601 435.419C340.305 436.169 335.99 436.944 333.747 437.324C330.286 437.916 325.588 438.584 322.079 438.984C318.11 439.44 312.799 439.849 309.96 440.002C306.345 440.256 301.986 440.335 297.915 440.343C295.582 440.375 293.237 440.36 290.908 440.297L290.134 440.247C281.042 439.653 269.787 439.002 261.223 437.461C254.509 436.254 246.591 434.574 241.04 433.182C236.176 431.954 229.98 430.09 225.601 428.523C219.342 426.285 212.016 423.42 206.96 421.195C202.847 419.39 197.012 416.519 192.101 413.877C187.189 411.234 180.875 407.437 175.616 404.015C171.993 401.65 167.619 398.409 163.764 395.558L161.921 394.189C157.296 390.782 151.5 385.636 147.467 381.914C144.853 379.556 141.884 376.532 139.083 373.567C137.767 372.217 136.483 370.876 135.338 369.747C130.881 365.191 126.771 360.309 123.039 355.143C122.099 353.81 121.042 352.361 119.942 350.855C117.44 347.406 114.854 343.851 112.882 340.784C109.715 335.855 105.744 329.112 103.012 324.005C97.6244 313.465 92.9377 302.582 88.9822 291.426C86.5689 284.72 84.6172 277.857 83.1408 270.885C82.8822 269.583 82.599 268.157 82.2721 266.701C81.4147 262.539 80.4624 257.816 79.9045 254.038C78.9169 247.882 78.2622 241.678 77.9433 235.452L77.6928 231.741C77.5345 227.437 77.3561 222.56 77.4183 218.696C77.527 212.878 77.9579 205.395 78.4873 200.086C79.6511 188.363 81.7563 176.753 84.7825 165.368C85.3661 163.223 87.4454 155.799 89.4345 150.094C91.5657 144.069 94.331 137.041 96.4867 132.185C98.1817 128.402 100.777 122.891 103.011 118.795C106.013 113.284 110.269 106.196 113.252 101.415C118.291 93.7463 123.787 86.3883 129.71 79.3807C132.816 75.8251 137.454 70.6801 141.13 66.9705C144.456 63.6239 149.255 59.1399 153.07 55.8183C165.456 45.0402 179.024 35.7022 193.515 27.9835ZM302.206 3.33346C296.418 3.12741 288.792 3.24729 283.218 3.64731C275.282 4.11409 267.377 5.01646 259.539 6.35031C259.465 6.38976 250.8 7.79686 242.242 10.0434C239.13 10.8579 231.873 12.7655 223.016 15.9317C197.546 25.0055 174.005 38.7779 153.614 56.534C149.815 59.8337 145.042 64.2902 141.737 67.6255C138.071 71.3295 133.444 76.4421 130.337 79.9977C124.469 86.9622 119.019 94.2685 114.015 101.878C111.037 106.67 106.749 113.748 103.794 119.22C101.576 123.294 98.9961 128.784 97.3117 132.56C95.1553 137.39 92.395 144.402 90.2687 150.411C88.9229 154.211 87.1749 159.91 85.6415 165.603C82.6292 176.945 80.5319 188.51 79.3697 200.187C78.8508 205.49 78.4185 212.92 78.3627 218.709C78.2893 222.552 78.4726 227.413 78.6359 231.7L78.7699 235.473C79.0967 241.667 79.7523 247.839 80.734 253.963C81.292 257.741 82.2379 262.427 83.0841 266.568C83.3793 268.041 83.673 269.46 83.9585 270.762C85.426 277.686 87.3621 284.503 89.7534 291.165C93.6936 302.28 98.3632 313.122 103.732 323.622C106.453 328.734 110.407 335.446 113.563 340.354C115.518 343.389 118.104 346.943 120.595 350.372C121.701 351.889 122.74 353.305 123.704 354.681C127.407 359.798 131.484 364.633 135.902 369.148C137.069 370.319 138.336 371.628 139.653 372.978C142.491 375.91 145.433 378.935 147.993 381.295C152.025 384.989 157.783 390.115 162.37 393.501L164.229 394.875C168.068 397.722 172.431 400.942 176.037 403.301C181.28 406.718 187.719 410.572 192.457 413.117C197.194 415.662 203.144 418.621 207.213 420.421C212.264 422.636 219.563 425.502 225.806 427.735C230.147 429.281 236.316 431.146 241.148 432.364C246.693 433.745 254.584 435.426 261.255 436.602C269.797 438.154 281.048 438.848 290.117 439.373L290.864 439.423C292.914 439.446 295.317 439.47 297.828 439.465C331.943 438.963 365.188 427.69 394.494 406.695L394.557 406.661L394.695 406.588L395.217 407.315C374.237 422.604 350.105 433.011 324.585 437.772C327.558 437.385 330.845 436.899 333.403 436.474C335.684 436.088 339.972 435.314 343.252 434.559C347.246 433.642 352.942 432.117 357.866 430.854C357.93 430.82 365.36 428.753 375.071 425.023C388.844 419.701 402.04 412.989 414.454 404.994C419.997 401.472 426.464 396.78 429.072 394.712C433.005 391.613 437.973 387.446 441.034 384.825C442.488 383.576 444.448 381.771 447.061 379.28C448.747 377.676 454.579 372.044 458.832 367.172L459.494 366.425C461.402 364.241 463.784 361.52 465.521 359.373C467.762 356.59 470.594 352.827 473.079 349.507C475.356 346.461 478.231 342.241 480.224 338.993C483.448 333.744 487.464 326.77 490.219 321.635C492.162 317.884 494.755 312.523 496.623 308.146C499.008 302.421 501.72 295.394 503.413 290.281C506.619 280.084 509.264 269.719 511.336 259.233C512.492 252.972 513.334 246.657 513.857 240.313C514.297 235.704 514.641 229.027 514.694 223.769C514.747 218.51 514.536 210.866 514.151 205.039C513.905 201.516 513.384 197.297 512.855 193.163C512.633 191.42 512.397 189.753 512.24 188.206C511.365 181.999 510.147 175.844 508.593 169.771C507.775 166.321 506.544 162.222 505.353 158.251C504.813 156.446 504.308 154.731 503.827 153.113C502.72 149.247 500.802 144.521 499.102 140.359C498.375 138.559 497.665 136.818 497.05 135.23C493.482 125.976 487.067 114.462 482.246 106.758C475.886 96.9753 468.981 87.5576 461.564 78.55C457.56 73.686 453.227 69.1027 448.596 64.8322C447.377 63.7422 446.005 62.5166 444.652 61.2262C441.675 58.4914 438.599 55.6733 435.919 53.4726C431.887 50.1854 425.783 45.4062 420.843 42.0725C418.332 40.3665 411.941 36.0935 406.742 33.1151C402.702 30.783 397.446 28.1064 392.81 25.752L389.603 24.1173C383.38 21.0142 376.945 18.3571 370.345 16.1662C361.744 13.3552 349.203 9.42193 339.754 7.64653C333.415 6.45678 324.39 5.12115 316.799 4.2585C312.602 3.77569 307.087 3.54657 302.239 3.37014L302.206 3.33346Z" fill="white" fill-opacity="0.19"/>
<path d="M198.019 35.3524L198.17 35.3539C259.319 37.0465 353.313 121.74 407.582 224.212L407.779 224.583L407.43 224.769C318.654 288.537 196.725 339.049 135.613 337.377L135.35 337.367L135.226 337.135C80.9031 234.636 109.049 99.2645 197.893 35.4468L198.019 35.3524ZM406.559 224.308C352.406 122.358 259.061 38.0938 198.28 36.3274C109.876 99.9247 81.9457 234.503 135.898 336.56C196.859 338.026 318.087 287.779 406.559 224.308Z" fill="white" fill-opacity="0.19"/>
<path d="M130.437 119.027C161.127 119.873 222.464 94.4868 267.112 62.3764L267.635 63.1033C222.833 95.282 161.268 120.776 130.418 119.934L130.437 119.027Z" fill="white" fill-opacity="0.19"/>
<path d="M108.043 227.102C160.635 228.542 265.673 185.011 342.185 130.054L342.708 130.781C266.059 185.838 160.776 229.445 108.017 227.999L108.043 227.102Z" fill="white" fill-opacity="0.19"/>
<path d="M197.809 35.5186L198.505 36.0855C152.815 91.8314 159.699 220.305 213.853 322.485L213.06 322.908C158.748 220.431 151.911 91.5112 197.809 35.5186Z" fill="white" fill-opacity="0.19"/>
<path d="M197.718 35.9067L198.598 35.6964C206.505 69.2793 257.054 179.819 311.275 282.126L310.481 282.549C256.232 180.188 205.643 69.5481 197.718 35.9067Z" fill="white" fill-opacity="0.19"/>
<path d="M218.898 22.3619C255.225 3.02236 295.788 -2.54241 335.384 6.7394C360.651 12.7366 384.26 24.3025 404.485 40.5922C426.004 57.664 443.927 79.5163 457.701 105.439C476.646 106.017 488.303 111.684 491.428 121.839C497.977 143.403 465.827 182.811 407.43 224.768L407.019 225.069L406.777 224.614C352.611 122.412 259.014 37.9015 198.133 36.2289L196.765 36.2102L197.85 35.4422C204.567 30.6179 211.599 26.2481 218.898 22.3619ZM407.35 223.751C465.144 182.115 497.027 143.202 490.537 122.055C487.529 112.246 476.065 106.788 457.39 106.284L457.127 106.274L456.986 106.01C443.255 80.0914 425.387 58.2913 403.889 41.2082C383.763 25.0279 360.281 13.5403 335.154 7.58215C288.418 -3.3732 240.272 6.47321 199.485 35.3736C260.6 38.2525 353.39 122.242 407.34 223.757L407.35 223.751Z" fill="white" fill-opacity="0.19"/>
<path d="M292.757 2.45408C302.483 2.70962 308.486 5.64066 310.095 10.8835C313.466 21.8587 297.213 41.8544 267.672 63.0697L267.149 62.3427C296.364 41.3558 312.481 21.7444 309.185 11.1642C307.704 6.31512 301.992 3.62339 292.683 3.36253L292.757 2.45408Z" fill="white" fill-opacity="0.19"/>
<path d="M385.8 27.5948C402.334 28.0304 412.481 32.9529 415.207 41.8257C420.942 60.5082 393.162 94.5745 342.719 130.803L342.196 130.076C392.312 94.0758 419.957 60.367 414.356 42.0889C411.763 33.6472 401.917 28.9315 385.786 28.5125L385.8 27.5948Z" fill="white" fill-opacity="0.19"/>
<path d="M198.021 35.3786C295.735 4.57738 419.31 62.9259 473.661 165.477L472.867 165.9C418.73 63.7507 295.562 5.57962 198.3 36.2352L198.021 35.3786Z" fill="white" fill-opacity="0.19"/>
<path d="M197.95 35.4025C305.61 -18.8971 437.334 20.387 491.686 122.938L490.892 123.361C436.777 21.2542 305.546 -17.8441 198.368 36.2125L197.95 35.4025Z" fill="white" fill-opacity="0.19"/>
<path d="M173.232 40.6424C180.895 36.7561 189.438 34.9329 198.02 35.3523C239.229 5.79199 287.984 -4.39181 335.373 6.7453C360.641 12.7425 384.249 24.3084 404.474 40.598C426.076 57.7483 444.027 79.6535 457.814 105.678L458.175 106.355L457.407 106.343C396.467 104.661 274.773 155.103 186.144 218.765L185.723 219.071L185.481 218.616C148.811 149.43 138.152 86.9224 157.641 55.4767C161.416 49.2249 166.8 44.1016 173.232 40.6424ZM198.3 36.2624L198.144 36.2503C180.214 35.7432 166.79 42.3735 158.361 55.9357C139.061 87.0225 149.647 148.984 185.972 217.702C274.346 154.352 395.344 104.158 456.6 105.387C442.951 79.7508 425.175 58.2004 403.864 41.2628C383.737 25.0824 360.255 13.5949 335.128 7.6367C287.971 -3.42053 239.409 6.71546 198.384 36.1905L198.3 36.2624Z" fill="white" fill-opacity="0.19"/>
<path d="M196.224 34.1753C232.509 14.8583 270.558 1.84226 292.756 2.45482L292.73 3.35132C262.04 2.5053 200.704 27.8917 156.062 60.0128L155.533 59.2752C168.53 50.0226 182.123 41.6378 196.224 34.1753Z" fill="white" fill-opacity="0.19"/>
<path d="M220.752 81.8268C282.81 48.7884 347.875 26.5521 385.802 27.594L385.776 28.4905C333.179 27.0406 228.157 70.5761 151.633 125.539L151.121 124.806C173.359 108.96 196.62 94.6026 220.752 81.8268Z" fill="white" fill-opacity="0.19"/>
<path d="M220.051 16.8714C231.351 10.8959 244.188 8.45921 256.892 9.87834C299.75 14.1629 345.766 55.2793 379.996 119.855L379.202 120.278C345.113 55.9665 299.36 15.0366 256.802 10.7819C234.111 8.50283 213.967 17.2845 198.526 36.0739L197.83 35.507C203.929 27.8843 211.482 21.5498 220.051 16.8714Z" fill="white" fill-opacity="0.19"/>
<path d="M197.796 25.7715L197.976 25.6757C205.617 22.8035 245.945 91.1556 282.554 160.225L281.76 160.648C233.749 70.0581 203.426 24.6083 198.299 26.5365C197.74 26.7117 196.781 28.0237 198.597 35.6967L197.718 35.9069C196.28 29.8122 196.304 26.566 197.796 25.7715Z" fill="white" fill-opacity="0.19"/>
<path d="M173.232 40.6422C180.281 36.8892 188.691 35.1292 198.17 35.3536L199.538 35.3722L198.448 36.1565C179.196 50.0901 162.551 67.3075 149.275 87.0186C146.629 120.732 159.511 167.615 186.273 218.112L186.459 218.462L186.12 218.642C153.898 241.787 129.69 264.116 115.636 283.036C120.215 301.679 127.066 319.69 136.035 336.663L136.396 337.34L135.629 337.328C116.534 336.802 104.785 331.116 101.649 320.913C98.7056 311.327 103.429 298.229 114.684 282.905C98.0774 215.223 110.969 141.835 148.38 86.6392C149.374 74.3185 152.483 63.7248 157.628 55.3749C161.42 49.1587 166.808 44.0715 173.232 40.6422ZM196.809 36.2413C179.51 36.1043 166.585 42.7272 158.388 55.9348C153.478 63.8334 150.496 73.7212 149.401 85.2398C162.32 66.3435 178.348 49.7727 196.803 36.2307L196.809 36.2413ZM185.272 218.224C158.97 168.487 146.115 122.242 148.245 88.5041C111.775 143.145 99.2229 215.333 115.423 282.022C129.527 263.171 153.498 241.062 185.267 218.213L185.272 218.224ZM134.888 336.472C126.175 319.857 119.483 302.258 114.954 284.051C104.158 298.833 99.6697 311.479 102.513 320.724C105.469 330.385 116.664 335.823 134.882 336.462L134.888 336.472Z" fill="white" fill-opacity="0.19"/>
<path d="M155.534 59.2746L156.063 60.0121C126.848 80.9991 110.715 100.606 113.968 111.208C115.46 116.052 121.172 118.743 130.481 119.004L130.461 119.911C120.734 119.656 114.732 116.725 113.122 111.482C109.714 100.513 125.999 80.5004 155.534 59.2746Z" fill="white" fill-opacity="0.19"/>
<path d="M151.18 124.815L151.693 125.548C101.576 161.548 73.9423 195.251 79.5434 213.529C82.1357 221.971 91.982 226.687 108.102 227.111L108.077 228.008C91.5376 227.562 81.4016 222.634 78.67 213.777C72.8984 195.128 100.678 161.035 151.18 124.815Z" fill="white" fill-opacity="0.19"/>
<path d="M171.083 46.6359C179.697 42.0647 188.714 38.2965 198.02 35.3792L198.299 36.2358C155.408 49.7512 122.74 79.1788 106.338 119.155C87.0044 166.331 92.0304 223.795 120.134 276.838L119.34 277.261C91.1125 223.985 86.0472 166.243 105.537 118.875C118.183 87.8193 141.399 62.2324 171.083 46.6359Z" fill="white" fill-opacity="0.19"/>
<path d="M193.387 37.7775C194.901 36.9717 196.414 36.1659 197.928 35.3601L198.35 36.1539C145.077 63.0347 106.097 108.266 88.4951 163.594C71.7988 215.954 76.6529 271.309 102.134 319.35L101.34 319.773C75.7512 271.504 70.8917 215.935 87.6348 163.305C104.818 109.41 142.273 64.9893 193.387 37.7775Z" fill="white" fill-opacity="0.19"/>
<path d="M134.887 336.473L135.654 336.485C196.594 338.167 318.278 287.731 406.917 224.063L407.339 223.757L407.581 224.212C444.257 293.409 454.915 355.916 435.41 387.357C426.97 400.952 413.007 407.896 395.048 407.486C353.843 437.03 305.083 447.23 257.694 436.093C232.428 430.091 208.82 418.526 188.593 402.24C166.992 385.09 149.046 363.196 135.243 337.166L134.887 336.473ZM326.788 274.574C255.32 312.622 180.429 338.296 136.391 337.411C150.045 363.057 167.832 384.602 189.138 401.529C209.266 417.713 232.75 429.204 257.879 435.166C305.036 446.223 353.572 436.088 394.612 406.618L394.75 406.544L394.9 406.546C412.836 407.064 426.254 400.423 434.689 386.871C453.936 355.786 443.35 293.824 406.987 225.113C381.366 243.339 354.575 259.861 326.788 274.574Z" fill="white" fill-opacity="0.19"/>
<path d="M207.249 414.289C259.867 415.727 364.889 372.192 441.391 317.241L441.92 317.978C365.27 373.035 259.998 416.636 207.229 415.196L207.249 414.289Z" fill="white" fill-opacity="0.19"/>
<path d="M300.287 439.391C330.977 440.237 392.303 414.856 436.956 382.73L437.479 383.457C392.677 415.635 331.118 441.14 300.262 440.288L300.287 439.391Z" fill="white" fill-opacity="0.19"/>
<path d="M213.06 322.907L213.854 322.485C247.943 386.796 293.702 427.737 336.259 431.991C358.95 434.27 379.084 425.494 394.53 406.689L395.231 407.266C379.578 426.345 359.177 435.182 336.17 432.895C293.306 428.6 247.279 387.462 213.06 322.907Z" fill="white" fill-opacity="0.19"/>
<path d="M310.481 282.55L311.275 282.127C359.22 372.697 389.614 418.177 394.753 416.27C395.268 416.091 396.265 414.799 394.454 407.11L395.334 406.9C396.821 413.24 396.716 416.488 395.069 417.12C387.417 419.971 347.072 351.587 310.481 282.55Z" fill="white" fill-opacity="0.19"/>
<path d="M456.632 105.37L457.4 105.382C476.505 105.902 488.253 111.588 491.39 121.792C494.323 131.383 489.609 144.475 478.355 159.799C494.967 227.492 482.075 300.88 444.654 356.081C443.66 368.402 440.551 378.996 435.406 387.346C426.946 400.978 412.929 407.924 394.871 407.431L393.502 407.413L394.582 406.634C413.851 392.698 430.512 375.472 443.798 355.749C446.444 322.036 433.509 275.181 406.8 224.656L406.614 224.306L406.953 224.126C439.175 200.981 463.372 178.658 477.425 159.737C472.847 141.094 465.996 123.084 457.027 106.111L456.632 105.37ZM478.086 158.733C488.872 143.958 493.371 131.306 490.528 122.061C487.566 112.389 476.371 106.952 458.153 106.312C466.866 122.928 473.558 140.527 478.086 158.733ZM444.796 354.308C481.238 299.587 493.818 227.452 477.655 160.729C463.509 179.604 439.537 201.712 407.768 224.561C434.076 274.309 446.937 320.564 444.796 354.308ZM419.356 401.446C425.683 398.049 430.978 393.01 434.685 386.86C439.59 378.951 442.577 369.074 443.7 357.608C430.755 376.475 414.716 393.019 396.259 406.543C405.133 406.609 412.833 404.91 419.356 401.446Z" fill="white" fill-opacity="0.19"/>
<path d="M472.866 165.9L473.66 165.477C501.904 218.759 506.958 276.506 487.496 323.926C471.005 364.168 438.155 393.815 395.019 407.407L394.74 406.55C437.631 393.035 470.299 363.607 486.7 323.63C506.012 276.412 500.98 218.938 472.866 165.9Z" fill="white" fill-opacity="0.19"/>
<path d="M490.858 123.297L491.652 122.874C517.23 171.149 522.106 226.723 505.352 279.358C487.687 334.951 448.503 380.359 395.071 407.351L394.649 406.557C447.896 379.704 486.891 334.451 504.494 279.123C521.183 226.699 516.358 171.424 490.858 123.297Z" fill="white" fill-opacity="0.19"/>
<path d="M266.229 168.169C338.11 129.901 413.477 104.178 457.367 105.399L457.63 105.409L457.738 105.61C512.084 208.177 484.023 343.504 395.136 407.344L395.009 407.412L394.859 407.41C333.689 405.729 239.742 320.997 185.441 218.541L185.256 218.192L185.605 218.006C211.35 199.633 238.284 182.984 266.229 168.169ZM457.116 106.28C396.17 104.765 274.915 155.013 186.433 218.489C240.576 320.445 333.926 404.72 394.712 406.47C483.102 342.948 511.074 208.348 457.116 106.28Z" fill="white" fill-opacity="0.19"/>
<path d="M319.962 269.025C382.021 235.986 447.08 213.74 485.017 214.776L484.997 215.683C432.414 214.184 327.361 257.763 250.854 312.731L250.326 311.993C272.565 296.151 295.828 281.797 319.962 269.025Z" fill="white" fill-opacity="0.19"/>
<path d="M366.049 354.594C402.333 335.277 440.388 322.272 462.58 322.874L462.555 323.77C431.86 322.94 370.528 348.31 325.875 380.437L325.353 379.71C338.348 370.448 351.943 362.057 366.049 354.594Z" fill="white" fill-opacity="0.19"/>
<path d="M379.17 120.268L379.964 119.845C434.275 222.322 441.118 351.253 395.22 407.245L394.518 406.668C440.225 350.953 433.341 222.48 379.17 120.268Z" fill="white" fill-opacity="0.19"/>
<path d="M281.759 160.648L282.553 160.225C336.803 262.586 387.381 373.232 395.316 406.868L394.437 407.078C386.535 373.506 335.981 262.956 281.759 160.648Z" fill="white" fill-opacity="0.19"/>
<path d="M185.998 217.674L186.24 218.129C240.411 320.342 334.009 404.852 394.884 406.514L396.252 406.533L395.162 407.317C353.884 436.954 305.102 447.112 257.692 436.013C232.426 430.011 208.819 418.446 188.591 402.16C167.072 385.088 149.149 363.236 135.365 337.319C116.425 336.752 104.762 331.074 101.648 320.913C95.029 299.319 127.194 259.862 185.596 217.915L185.998 217.674ZM393.549 407.401C332.473 404.596 239.655 320.554 185.705 219.039C127.912 260.675 96.0283 299.588 102.518 320.735C105.526 330.545 116.99 336.002 135.666 336.506L135.918 336.521L136.042 336.754C149.826 362.645 167.652 384.467 189.149 401.55C209.277 417.734 232.761 429.225 257.891 435.187C304.584 446.138 352.74 436.259 393.549 407.401Z" fill="white" fill-opacity="0.19"/>
<path d="M250.326 311.993L250.854 312.731C200.732 348.72 173.093 382.44 178.694 400.718C181.281 409.149 191.127 413.865 207.247 414.289L207.228 415.196C190.688 414.75 180.552 409.822 177.831 400.96C172.108 382.325 199.882 348.222 250.326 311.993Z" fill="white" fill-opacity="0.19"/>
<path d="M325.352 379.71L325.875 380.437C296.671 401.418 280.543 421.036 283.839 431.616C285.331 436.459 291.032 439.157 300.352 439.412L300.326 440.308C290.599 440.053 284.586 437.127 282.987 431.879C279.569 420.916 295.821 400.92 325.352 379.71Z" fill="white" fill-opacity="0.19"/>
<path d="M119.363 277.303L120.157 276.88C174.294 379.029 297.479 437.205 394.741 406.55L395.02 407.406C297.382 438.222 173.698 379.822 119.363 277.303Z" fill="white" fill-opacity="0.19"/>
<path d="M101.331 319.805L102.125 319.382C156.245 421.499 287.477 460.598 394.654 406.541L395.077 407.335C287.472 461.66 155.699 422.388 101.331 319.805Z" fill="white" fill-opacity="0.19"/>
<path d="M194.216 27.623L195.031 27.1891L197.949 25.7036L199.24 25.0161C200.415 24.3906 202.111 23.5962 203.564 22.9315C211.762 19.0937 220.188 15.7646 228.796 12.9629C244.511 7.85397 260.758 4.5553 277.221 3.13087C285.54 2.45941 293.888 2.21369 302.232 2.39471C309.904 2.53915 317.561 3.14954 325.158 4.22249C326.467 4.43578 327.873 4.65197 329.332 4.86675C334.287 5.6252 339.904 6.47937 344.257 7.61263C345.704 7.98332 347.291 8.38796 348.959 8.79054C352.668 9.7096 356.517 10.6626 359.67 11.6334C365.196 13.3375 372.362 15.8257 377.487 17.8243C384.737 20.6483 394.439 25.3731 407.157 32.2416C412.617 35.3686 417.918 38.7672 423.038 42.4249C428.168 45.9379 433.097 49.7358 437.802 53.8007C446.341 61.4151 454.492 69.4532 462.225 77.8847C468.452 84.9621 475.595 95.1381 481.139 103.204C483.724 106.989 486.509 112.041 488.951 116.501L490.112 118.681C493.279 124.372 496.075 130.263 498.481 136.315C499.062 137.866 499.728 139.577 500.418 141.356C501.95 145.281 503.529 149.345 504.653 152.781C506.48 158.383 508.563 165.765 509.827 171.151C511.049 176.355 512.365 183.14 513.091 188.024C513.718 192.187 514.223 197.474 514.664 202.13L515.14 206.903C515.696 213.413 515.823 219.952 515.522 226.479C515.107 235.598 513.8 248.506 512.206 259.367C511.179 266.042 509.699 272.64 507.776 279.114L506.441 283.547C505.379 287.115 504.174 291.179 503.005 294.342C500.827 300.229 497.483 308.34 494.489 315.014C492.352 319.779 489.015 325.862 487.682 328.256C485.723 331.772 482.939 336.215 480.725 339.839L480.066 340.896C475.576 347.998 470.598 354.779 465.167 361.19C460.484 366.631 456.88 370.656 454.168 373.472C450.609 377.146 445.622 381.839 442.146 385.007C437.768 388.981 431.816 393.672 430.133 395.002C426.294 397.997 423.021 400.269 419.563 402.654C418.303 403.528 413.365 406.782 410.633 408.413C406.903 410.643 403.691 412.571 398.032 415.542C389.06 420.199 379.779 424.233 370.253 427.615C365.639 429.283 360.157 430.979 357.601 431.715C353.932 432.758 348.447 434.143 342.912 435.459C339.766 436.183 335.271 437.028 331.739 437.563C326.491 438.347 320.261 439.123 315.835 439.536C308.076 440.271 297.717 440.257 290.834 440.267C289.235 440.222 287.634 440.15 286.056 440.094C281.098 439.867 275.296 439.506 270.761 438.822C269.431 438.62 267.961 438.411 266.438 438.203C262.938 437.703 258.97 437.139 255.843 436.521C249.609 435.396 243.436 433.953 237.349 432.199C235.888 431.726 234.277 431.226 232.567 430.669C228.88 429.534 225.068 428.371 221.96 427.228C216.149 425.091 209.334 422.293 204.613 420.161C199.891 418.029 193.923 414.984 189.819 412.659C187.571 411.397 179.754 406.946 173.955 402.942C164.113 396.339 154.828 388.942 146.192 380.826C137.183 372.377 126.993 360.074 123.032 355.187C119.349 350.641 114.998 344.127 111.956 339.484C109.81 336.143 107.35 331.802 105.181 327.957C104.437 326.56 103.647 325.255 102.951 324.05C99.3996 317.648 96.2922 311.01 93.6508 304.182C91.4162 298.403 89.1494 292.41 87.671 287.668C85.9131 282.069 83.9105 274.659 82.6991 269.245C81.5258 264.055 80.2957 257.279 79.6123 252.372C79.0307 248.09 78.5333 242.69 78.1637 237.888L77.777 233.461C77.3906 227.859 77.306 222.24 77.5235 216.629C77.6582 212.033 78.1216 206.244 78.5331 201.148L78.7893 197.317C79.4775 190.431 80.5727 183.593 82.0689 176.837C84.2858 166.406 87.2228 156.141 90.8589 146.116C93.1317 140.178 96.5716 132.044 99.683 125.334C101.412 121.615 104.012 116.93 106.099 113.169L106.591 112.282C111.264 104.171 116.43 96.3531 122.059 88.8736C124.075 86.3061 129.225 79.8015 133.417 75.097C136.557 71.5781 141.208 66.7653 145.083 63.0721C150.771 57.6348 156.736 52.4956 162.955 47.6752C167.616 44.0799 170.331 42.2134 173.484 40.046C175.324 38.7812 179.893 35.8051 182.419 34.2975C186.001 32.146 188.32 30.7617 190.855 29.3987L194.21 27.6124L194.216 27.623ZM398.901 414.061C403.728 411.492 406.708 409.715 410.115 407.67C412.836 406.044 417.748 402.818 418.997 401.949C422.45 399.554 425.708 397.304 429.526 394.32C434.08 390.754 438.556 387.04 441.481 384.369C444.929 381.175 449.917 376.536 453.466 372.867C456.173 370.068 459.761 366.065 464.434 360.629C469.845 354.276 474.803 347.551 479.273 340.504L479.932 339.446C482.11 335.882 484.907 331.363 486.879 327.896C488.207 325.518 491.518 319.462 493.667 314.773C496.657 308.114 499.985 300.025 502.158 294.155C503.317 291.024 504.517 286.976 505.579 283.408L506.914 278.975C508.84 272.541 510.318 265.98 511.336 259.341C512.942 248.501 514.244 235.636 514.655 226.533C514.933 220.04 514.782 213.535 514.205 207.061C514.055 205.579 513.911 203.957 513.74 202.283C513.288 197.632 512.788 192.356 512.156 188.182C511.425 183.314 510.068 176.606 508.905 171.384C507.741 166.162 505.559 158.67 503.743 153.089C502.631 149.673 501.058 145.621 499.548 141.738C498.848 139.964 498.182 138.254 497.595 136.692C495.21 130.678 492.435 124.827 489.288 119.175L488.127 116.994C485.685 112.561 482.918 107.541 480.349 103.787C474.832 95.7209 467.717 85.571 461.464 78.5211C453.756 70.111 445.626 62.0972 437.107 54.5105C432.43 50.4682 427.53 46.6911 422.43 43.1968C417.343 39.5576 412.075 36.1777 406.647 33.07C397.075 27.709 387.2 22.9104 377.07 18.6987C371.939 16.7163 364.821 14.2161 359.311 12.5169C356.181 11.5617 352.358 10.608 348.65 9.68897C346.992 9.28075 345.4 8.89229 343.953 8.5216C339.632 7.39827 334.032 6.54904 329.104 5.78991C327.634 5.58073 326.239 5.35894 324.93 5.14566C317.375 4.08179 309.762 3.47573 302.133 3.33071C293.819 3.14976 285.502 3.39288 277.213 4.05909C251.786 6.27051 226.95 12.9491 203.844 23.788C202.433 24.4302 200.759 25.2401 199.572 25.8445L198.292 26.5263L195.385 28.0061C194.517 28.4682 193.458 29.0317 192.474 29.5558L191.214 30.2263C188.695 31.5675 186.381 32.9624 182.91 35.0414C180.337 36.5877 175.799 39.5469 173.959 40.8117C170.828 42.9678 168.113 44.8343 163.478 48.4021C157.278 53.1998 151.334 58.3189 145.669 63.7384C141.841 67.3929 137.179 72.2113 134.055 75.7083C129.868 80.3966 124.744 86.8737 122.734 89.4518C117.137 96.8905 111.997 104.662 107.343 112.725L106.856 113.622C104.774 117.366 102.185 122.046 100.466 125.732C97.3591 132.426 93.9031 140.556 91.6613 146.449C88.0447 156.436 85.1229 166.662 82.9166 177.052C81.4254 183.768 80.3364 190.567 79.6554 197.412L79.3563 201.24C78.9497 206.319 78.4855 212.082 78.3678 216.709C78.1443 222.281 78.2172 227.86 78.586 233.424L78.9784 237.861C79.3847 242.631 79.8448 248.037 80.4257 252.292C81.0978 257.178 82.3271 263.927 83.4893 269.096C84.7056 274.493 86.6857 281.862 88.4322 287.439C89.9262 292.159 92.1874 298.142 94.4107 303.9C97.0296 310.685 100.115 317.281 103.643 323.641C104.303 324.879 105.092 326.184 105.884 327.569C108.042 331.392 110.486 335.729 112.62 339.048C115.609 343.693 119.911 350.192 123.646 354.656C127.607 359.544 137.801 371.777 146.755 380.2C155.359 388.3 164.61 395.683 174.415 402.276C180.187 406.253 187.966 410.684 190.214 411.946C194.285 414.235 200.068 417.161 204.942 419.402C209.817 421.643 216.442 424.365 222.289 426.468C225.353 427.554 229.177 428.765 232.848 429.894C234.47 430.389 236.092 430.884 237.64 431.419C243.696 433.17 249.838 434.606 256.043 435.722L256.425 435.804C207.295 423.923 164.206 389.888 136.879 340.113C136.428 339.266 135.971 338.408 135.515 337.551L135.318 337.181C80.9022 234.636 109.048 99.2646 197.892 35.4468L198.415 36.1737C109.887 99.7688 81.9201 234.584 136.031 336.733L136.228 337.104C168.59 397.892 224.308 435.772 286.066 439.246L290.824 439.43C297.679 439.421 308.064 439.408 315.734 438.708C320.133 438.295 326.352 437.524 331.583 436.736C335.1 436.222 339.563 435.368 342.693 434.639C348.223 433.365 353.697 431.986 357.339 430.917C359.89 430.197 365.335 428.507 369.927 426.85C379.405 423.457 388.639 419.421 397.567 414.771L398.901 414.061Z" fill="white" fill-opacity="0.19"/>
</svg>
