<svg width="47" height="35" viewBox="0 0 47 35" fill="none" xmlns="http://www.w3.org/2000/svg">
<g id="60e4a1e738075608ade7fbc4_icon-about-drive-1-crypto-template.svg" clip-path="url(#clip0_558_9312)">
<path id="Vector" d="M23.2339 23.1333C15.9132 23.1333 9.73633 24.3295 9.73633 28.9464C9.73633 33.5651 15.9531 34.7193 23.2339 34.7193C30.5546 34.7193 36.7315 33.5231 36.7315 28.9062C36.7315 24.2875 30.5147 23.1333 23.2339 23.1333Z" fill="white"/>
<path id="Vector_2" opacity="0.4" d="M23.2327 18.7347C28.1898 18.7347 32.1646 14.737 32.1646 9.75138C32.1646 4.76384 28.1898 0.768066 23.2327 0.768066C18.2756 0.768066 14.3008 4.76384 14.3008 9.75138C14.3008 14.737 18.2756 18.7347 23.2327 18.7347Z" fill="white"/>
<path id="Vector_3" opacity="0.4" d="M42.626 11.8433C43.9085 6.79841 40.1484 2.26758 35.3604 2.26758C34.8398 2.26758 34.342 2.32491 33.8556 2.42236C33.791 2.43765 33.7188 2.47014 33.6808 2.52747C33.6371 2.60008 33.6694 2.69754 33.7169 2.7606C35.1552 4.79002 35.9817 7.26086 35.9817 9.91324C35.9817 12.4548 35.2236 14.8243 33.8936 16.7907C33.7568 16.9933 33.8784 17.2665 34.1197 17.3086C34.4541 17.3678 34.7961 17.3984 35.1457 17.4079C38.6322 17.4997 41.7615 15.2428 42.626 11.8433Z" fill="white"/>
<path id="Vector_4" d="M46.2782 23.7214C45.6398 22.3531 44.0989 21.4149 41.7562 20.9543C40.6504 20.683 37.6579 20.3008 34.8744 20.3524C34.8326 20.3581 34.8098 20.3868 34.806 20.4059C34.8003 20.4326 34.8117 20.4785 34.8668 20.5072C36.1531 21.1473 41.1254 23.9316 40.5003 29.8039C40.4737 30.058 40.677 30.2778 40.9297 30.2396C42.1533 30.0638 45.3016 29.3835 46.2782 27.2642C46.8178 26.1444 46.8178 24.8431 46.2782 23.7214Z" fill="white"/>
<path id="Vector_5" opacity="0.4" d="M12.8274 2.42285C12.3429 2.32348 11.8432 2.26807 11.3226 2.26807C6.53465 2.26807 2.77455 6.7989 4.05895 11.8438C4.92155 15.2433 8.05085 17.5001 11.5373 17.4084C11.8869 17.3989 12.2308 17.3664 12.5633 17.3091C12.8046 17.267 12.9262 16.9937 12.7894 16.7912C11.4594 14.8229 10.7013 12.4553 10.7013 9.91373C10.7013 7.25943 11.5297 4.78859 12.968 2.76109C13.0136 2.69803 13.0478 2.60057 13.0022 2.52795C12.9642 2.46871 12.8939 2.43814 12.8274 2.42285Z" fill="white"/>
<path id="Vector_6" d="M4.92623 20.9532C2.58353 21.4138 1.04453 22.352 0.406125 23.7203C-0.135375 24.842 -0.135375 26.1433 0.406125 27.2651C1.38273 29.3824 4.53103 30.0646 5.75463 30.2385C6.00733 30.2767 6.20873 30.0589 6.18213 29.8028C5.55703 23.9324 10.5293 21.1482 11.8175 20.508C11.8707 20.4774 11.8821 20.4335 11.8764 20.4048C11.8726 20.3857 11.8517 20.357 11.8099 20.3532C9.02453 20.2997 6.03393 20.6819 4.92623 20.9532Z" fill="white"/>
</g>
<defs>
<clipPath id="clip0_558_9312">
<rect width="47" height="35" fill="white"/>
</clipPath>
</defs>
</svg>
