<svg width="52" height="52" viewBox="0 0 52 52" fill="none" xmlns="http://www.w3.org/2000/svg">
<g id="60e4a1e7380756dbbae7fbc6_icon-about-drive-2-crypto-template.svg" clip-path="url(#clip0_558_9340)">
<path id="Vector" d="M51.4875 25.7437C51.4875 39.973 39.973 51.4875 25.7437 51.4875C11.5145 51.4875 0 39.973 0 25.7437C0 11.5145 11.5145 0 25.7437 0C28.7862 0 31.735 0.514875 34.4498 1.49782C44.3728 5.05513 51.4875 14.5569 51.4875 25.7437Z" fill="white" fill-opacity="0.4"/>
<path id="Vector_2" d="M50.9719 20.5483C49.1465 11.7019 42.7808 4.49361 34.4491 1.49798C34.4023 1.49798 34.3555 1.45117 34.3555 1.45117L34.4491 6.41269C34.4491 7.67647 33.7002 8.84664 32.5301 9.36152C29.9557 10.4849 27.3813 9.87639 26.3048 12.8252C25.4154 15.0251 27.7558 21.0632 30.611 21.0632C34.2151 21.0632 35.947 13.8082 37.0235 13.8082C37.7256 13.8082 38.8022 16.0081 40.066 17.6463C40.9085 18.7697 42.2191 19.3782 43.6233 19.3782H46.0104L50.9719 20.5483Z" fill="white"/>
<path id="Vector_3" d="M30.3305 31.3604C29.0199 33.1858 35.9005 38.7558 38.194 37.6793C42.079 35.8538 44.6065 32.0625 44.6065 30.6583C44.6065 29.254 42.7811 26.5393 36.5558 30.7519C34.8239 32.0156 31.6879 29.4881 30.3305 31.3604Z" fill="white"/>
<path id="Vector_4" d="M19.8929 26.2586C21.2503 24.9012 21.6715 22.7949 20.9694 21.5779C18.7227 17.5057 13.3867 19.6589 12.8719 23.9183C12.591 26.4927 11.0464 29.1138 9.73581 30.4712C8.42522 31.7818 5.85085 31.0797 5.14875 29.1606C4.35303 27.0075 7.11463 26.2118 6.69337 23.4502C6.59976 22.7013 5.80404 22.3268 4.8211 22.1864L0.187227 22.3737C0.0936134 23.4502 0 24.5736 0 25.7437C0 38.0539 8.61245 48.3514 20.1737 50.879V46.2919C20.1737 46.2919 20.1737 46.2919 19.0036 45.1218C17.8334 43.9516 20.2205 41.9857 20.8758 39.5049C22.7013 32.4839 16.6164 32.2031 16.4292 30.6585C16.242 28.9266 18.5355 27.616 19.8929 26.2586Z" fill="white"/>
</g>
<defs>
<clipPath id="clip0_558_9340">
<rect width="52" height="52" fill="white"/>
</clipPath>
</defs>
</svg>
