<svg width="58" height="58" viewBox="0 0 58 58" fill="none" xmlns="http://www.w3.org/2000/svg">
<g clip-path="url(#clip0_71_1776)">
<path d="M7.30607 11.0207L1.07822 29.1802L8.50103 31.7259L14.7289 13.5664L7.30607 11.0207Z" fill="#EC0033"/>
<path d="M20.1213 12.5582L19.3993 12.9133C18.4997 13.3513 17.4462 13.4105 16.5112 13.079L15.3038 12.6529C15.2328 12.6056 15.1618 12.5701 15.0908 12.5464L7.65746 10.0016C7.10114 9.81218 6.48565 10.1081 6.29626 10.6644L0.0584292 28.8334C-0.0362628 29.1057 -0.0125898 29.4016 0.105775 29.6501C0.22414 29.8987 0.449033 30.0999 0.721273 30.1946L8.14275 32.7395C8.26112 32.775 8.37948 32.7986 8.48601 32.7986C8.9358 32.7986 9.35008 32.5146 9.50395 32.0766L15.3867 14.9611L15.7891 15.1031C17.2687 15.6239 18.9258 15.5292 20.3462 14.8427L21.0682 14.4876C21.9559 14.0496 22.9976 13.9905 23.9326 14.31L37.5801 19.0091C37.4381 19.5773 37.154 20.252 36.6332 20.6189C36.0532 21.0213 35.1891 21.0213 34.0528 20.6307L27.9689 18.5475C27.6848 18.4528 27.3771 18.4765 27.1167 18.6185C26.8562 18.7606 26.6669 19.0091 26.584 19.2932C26.5722 19.3287 25.7318 22.4772 23.0449 23.9213C21.3523 24.8327 19.2454 24.8682 16.7716 24.0278C16.2152 23.8384 15.5997 24.1343 15.4104 24.6906C15.221 25.247 15.5169 25.8625 16.0732 26.0518C17.4936 26.5371 18.8311 26.7857 20.0739 26.7857C21.518 26.7857 22.8437 26.4661 24.051 25.8151C26.4538 24.5249 27.6966 22.2642 28.2648 20.9148L33.3426 22.6548C35.1536 23.2821 36.6687 23.1874 37.8405 22.3707C39.7225 21.0687 39.8172 18.4291 39.829 18.3108C39.8409 17.8373 39.545 17.423 39.107 17.2692L24.6192 12.2742C23.1633 11.777 21.518 11.8836 20.1213 12.5582ZM7.835 30.3603L2.43756 28.5138L7.96521 12.3807L13.3626 14.2272L7.835 30.3603Z" fill="#EC0033"/>
<path d="M41.4271 14.5909L49.8643 31.834L56.9124 28.3853L48.4752 11.1422L41.4271 14.5909Z" fill="#EC0033"/>
<path d="M48.5524 31.5795L46.0076 33.9231C43.6995 36.0419 41.0954 37.8292 38.2783 39.2022L24.7729 45.807C24.1811 46.1029 23.4591 45.8543 23.1631 45.2507C22.8672 44.6588 23.1158 43.9368 23.7195 43.6409L23.8852 43.558L31.2711 39.9479C31.8038 39.6875 32.0287 39.0483 31.7683 38.5157C31.5079 37.9831 30.8687 37.7582 30.3361 38.0186L22.9501 41.6287L19.2334 43.4515C18.6416 43.7474 17.9196 43.4989 17.6237 42.8952C17.4816 42.6111 17.4579 42.2797 17.5645 41.9838C17.671 41.676 17.8841 41.4393 18.1681 41.2973L20.9734 39.9242L28.9985 35.9945C29.5312 35.7341 29.7561 35.095 29.4957 34.5623C29.2353 34.0297 28.5961 33.8048 28.0634 34.0652L20.0265 38.0067L19.7187 38.1606L15.8837 40.0426C15.5996 40.1846 15.2682 40.2083 14.9723 40.1018C14.6645 39.9953 14.4278 39.7822 14.2858 39.4981C13.9899 38.9063 14.2384 38.1843 14.8421 37.8884L16.1678 37.2374L18.8783 35.9117L19.6359 35.5447L25.8619 32.4909C26.3945 32.2305 26.6194 31.5913 26.359 31.0587C26.0986 30.5261 25.4594 30.3012 24.9268 30.5616L18.18 33.864L15.2327 35.308C14.6409 35.5921 13.9188 35.3554 13.6229 34.7517C13.4809 34.4676 13.4572 34.1362 13.5637 33.8403C13.6703 33.5325 13.8833 33.2958 14.1674 33.1538L19.3163 30.6326C19.8489 30.3722 20.0738 29.733 19.8134 29.2004C19.553 28.6677 18.9138 28.4428 18.3812 28.7032L13.2323 31.2244C12.4274 31.615 11.8238 32.3015 11.5397 33.1419C11.2556 33.9823 11.303 34.8937 11.6936 35.6986C11.9421 36.1957 12.2972 36.61 12.7234 36.9178C11.9777 37.9002 11.7883 39.2496 12.3683 40.4332C12.7589 41.2381 13.4454 41.8418 14.2858 42.1258C14.6409 42.2442 14.996 42.3034 15.3511 42.3034C15.3392 42.836 15.4457 43.3687 15.6943 43.854C16.2743 45.0376 17.4698 45.7241 18.7008 45.7241C19.1979 45.7241 19.695 45.6176 20.1685 45.3809L20.926 45.0139C20.9616 45.4164 21.0681 45.807 21.2456 46.1857C21.8256 47.3694 23.0211 48.0559 24.2521 48.0559C24.7492 48.0559 25.2464 47.9494 25.7198 47.7127L39.2253 41.1079C42.2317 39.6402 45.0015 37.7463 47.4635 35.4856L50.4818 32.704L57.3943 29.3187C57.9269 29.0583 58.1518 28.4192 57.8914 27.8865L49.4402 10.6644C49.31 10.404 49.0969 10.2146 48.8247 10.12C48.5524 10.0253 48.2565 10.0489 48.0079 10.1673L40.9534 13.6117C40.4207 13.8721 40.1959 14.5113 40.4563 15.0439L48.5524 31.5795ZM47.9843 12.5701L55.4768 27.8984L50.3516 30.4077L42.8591 15.0794L47.9843 12.5701Z" fill="#EC0033"/>
</g>
<defs>
<clipPath id="clip0_71_1776">
<rect width="58" height="58" fill="white"/>
</clipPath>
</defs>
</svg>
