<svg width="45" height="45" viewBox="0 0 45 45" fill="none" xmlns="http://www.w3.org/2000/svg">
<g id="60e4a1e73807561d83e7fbc5_icon-about-drive-3-crypto-template.svg" clip-path="url(#clip0_558_9333)">
<path id="Vector" d="M19.2601 38.8179C29.7084 38.8179 38.1784 30.2947 38.1784 19.7808C38.1784 9.26685 29.7084 0.743652 19.2601 0.743652C8.81181 0.743652 0.341797 9.26685 0.341797 19.7808C0.341797 30.2947 8.81181 38.8179 19.2601 38.8179Z" fill="white"/>
<path id="Vector_2" opacity="0.4" d="M41.4265 44.6452C40.6916 44.6214 39.9928 44.3191 39.4701 43.7987L34.99 38.562C34.0295 37.6836 33.9509 36.1908 34.8139 35.2152C35.2178 34.8065 35.767 34.5767 36.3399 34.5767C36.9127 34.5767 37.4619 34.8065 37.8659 35.2152L43.5003 39.7235C44.3119 40.5542 44.5623 41.7874 44.1397 42.8719C43.717 43.9564 42.7003 44.6896 41.5439 44.7437L41.4265 44.6452Z" fill="white"/>
</g>
<defs>
<clipPath id="clip0_558_9333">
<rect width="45" height="45" fill="white"/>
</clipPath>
</defs>
</svg>
