<svg width="46" height="46" viewBox="0 0 46 46" fill="none" xmlns="http://www.w3.org/2000/svg">
<g id="60e4a1e73807566bf2e7fbc7_icon-about-drive-4-crypto-template.svg" clip-path="url(#clip0_558_9325)">
<path id="Vector" opacity="0.4" d="M45.1309 22.7437C45.1309 35.1084 35.1079 45.1314 22.7432 45.1314C10.3784 45.1314 0.355469 35.1084 0.355469 22.7437C0.355469 10.3812 10.3784 0.355957 22.7432 0.355957C35.1079 0.355957 45.1309 10.3812 45.1309 22.7437Z" fill="white"/>
<path id="Vector_2" d="M31.3843 15.3668L27.7575 26.8293C27.6232 27.2994 27.2426 27.68 26.7724 27.8166L15.3547 31.3964C14.5935 31.6449 13.8547 30.9038 14.101 30.1427L17.683 18.6578C17.8174 18.1876 18.1979 17.8294 18.6681 17.6727L30.1306 14.0907C30.9142 13.8444 31.6306 14.5832 31.3843 15.3668Z" fill="white"/>
</g>
<defs>
<clipPath id="clip0_558_9325">
<rect width="46" height="46" fill="white"/>
</clipPath>
</defs>
</svg>
