<svg width="54" height="54" viewBox="0 0 54 54" fill="none" xmlns="http://www.w3.org/2000/svg">
<path d="M40.5 27C40.5 28.7902 41.2112 30.5071 42.477 31.773C43.7429 33.0388 45.4598 33.75 47.25 33.75V40.5C47.25 41.0967 47.0129 41.669 46.591 42.091C46.169 42.5129 45.5967 42.75 45 42.75H9C8.40326 42.75 7.83097 42.5129 7.40901 42.091C6.98705 41.669 6.75 41.0967 6.75 40.5V33.75C8.54021 33.75 10.2571 33.0388 11.523 31.773C12.7888 30.5071 13.5 28.7902 13.5 27C13.5 25.2098 12.7888 23.4929 11.523 22.227C10.2571 20.9612 8.54021 20.25 6.75 20.25V13.5C6.75 12.9033 6.98705 12.331 7.40901 11.909C7.83097 11.4871 8.40326 11.25 9 11.25H45C45.5967 11.25 46.169 11.4871 46.591 11.909C47.0129 12.331 47.25 12.9033 47.25 13.5V20.25C45.4598 20.25 43.7429 20.9612 42.477 22.227C41.2112 23.4929 40.5 25.2098 40.5 27Z" stroke="#EC0033" stroke-width="2.5" stroke-linecap="round" stroke-linejoin="round"/>
<path d="M22.5 11.25V15.75" stroke="#EC0033" stroke-width="2.5" stroke-linecap="round" stroke-linejoin="round"/>
<path d="M22.5 38.25V42.75" stroke="#EC0033" stroke-width="2.5" stroke-linecap="round" stroke-linejoin="round"/>
<path d="M22.5 29.25V24.75" stroke="#EC0033" stroke-width="2.5" stroke-linecap="round" stroke-linejoin="round"/>
</svg>
